<mxfile host="app.diagrams.net" agent="Mozilla/5.0 (Windows NT 10.0; Win64; x64) AppleWebKit/537.36 (KHTML, like Gecko) Chrome/141.0.0.0 Safari/537.36" version="28.2.7">
  <diagram name="Trang-1" id="BNuc9Tho2VInWAJtmNCV">
    <mxGraphModel dx="2329" dy="1082" grid="1" gridSize="10" guides="1" tooltips="1" connect="1" arrows="1" fold="1" page="1" pageScale="1" pageWidth="827" pageHeight="1169" math="0" shadow="0">
      <root>
        <mxCell id="0" />
        <mxCell id="1" parent="0" />
        <mxCell id="1VUmnsQ3BvMP89mHqFCF-1" style="edgeStyle=orthogonalEdgeStyle;rounded=0;orthogonalLoop=1;jettySize=auto;html=1;exitX=1;exitY=0.5;exitDx=0;exitDy=0;entryX=0;entryY=0.5;entryDx=0;entryDy=0;" edge="1" parent="1" source="1VUmnsQ3BvMP89mHqFCF-2" target="1VUmnsQ3BvMP89mHqFCF-10">
          <mxGeometry relative="1" as="geometry" />
        </mxCell>
        <mxCell id="1VUmnsQ3BvMP89mHqFCF-2" value="&lt;span style=&quot;font-size:14.0pt;mso-bidi-font-size:11.0pt;&amp;lt;br/&amp;gt;line-height:105%;font-family:&amp;quot;Times New Roman&amp;quot;,serif;mso-fareast-font-family:&amp;lt;br/&amp;gt;Calibri;mso-fareast-theme-font:minor-latin;mso-bidi-theme-font:minor-bidi;&amp;lt;br/&amp;gt;mso-ansi-language:EN-US;mso-fareast-language:EN-US;mso-bidi-language:AR-SA&quot;&gt;1. Mở form tiếp nhận khách thuê&lt;/span&gt;" style="ellipse;whiteSpace=wrap;html=1;aspect=fixed;fillColor=#dae8fc;strokeColor=#6c8ebf;rounded=0;" vertex="1" parent="1">
          <mxGeometry x="266" y="237" width="134" height="134" as="geometry" />
        </mxCell>
        <mxCell id="1VUmnsQ3BvMP89mHqFCF-3" style="edgeStyle=orthogonalEdgeStyle;rounded=0;orthogonalLoop=1;jettySize=auto;html=1;exitX=1;exitY=0.5;exitDx=0;exitDy=0;entryX=0;entryY=0.5;entryDx=0;entryDy=0;" edge="1" parent="1" source="1VUmnsQ3BvMP89mHqFCF-8" target="1VUmnsQ3BvMP89mHqFCF-16">
          <mxGeometry relative="1" as="geometry" />
        </mxCell>
        <mxCell id="1VUmnsQ3BvMP89mHqFCF-4" style="edgeStyle=orthogonalEdgeStyle;rounded=0;orthogonalLoop=1;jettySize=auto;html=1;exitX=0.5;exitY=0;exitDx=0;exitDy=0;entryX=0;entryY=0.5;entryDx=0;entryDy=0;" edge="1" parent="1" source="1VUmnsQ3BvMP89mHqFCF-8" target="1VUmnsQ3BvMP89mHqFCF-154">
          <mxGeometry relative="1" as="geometry">
            <Array as="points">
              <mxPoint x="1860" y="160" />
              <mxPoint x="3072" y="160" />
              <mxPoint x="3072" y="789" />
            </Array>
          </mxGeometry>
        </mxCell>
        <mxCell id="1VUmnsQ3BvMP89mHqFCF-5" style="edgeStyle=orthogonalEdgeStyle;rounded=0;orthogonalLoop=1;jettySize=auto;html=1;exitX=0.5;exitY=1;exitDx=0;exitDy=0;entryX=0.5;entryY=0;entryDx=0;entryDy=0;" edge="1" parent="1" source="1VUmnsQ3BvMP89mHqFCF-8" target="1VUmnsQ3BvMP89mHqFCF-96">
          <mxGeometry relative="1" as="geometry" />
        </mxCell>
        <mxCell id="1VUmnsQ3BvMP89mHqFCF-6" style="edgeStyle=orthogonalEdgeStyle;rounded=0;orthogonalLoop=1;jettySize=auto;html=1;exitX=0.96;exitY=0.707;exitDx=0;exitDy=0;entryX=0;entryY=0.5;entryDx=0;entryDy=0;exitPerimeter=0;" edge="1" parent="1" source="1VUmnsQ3BvMP89mHqFCF-8" target="1VUmnsQ3BvMP89mHqFCF-107">
          <mxGeometry relative="1" as="geometry">
            <Array as="points">
              <mxPoint x="1922" y="785" />
              <mxPoint x="2270" y="785" />
              <mxPoint x="2270" y="2696" />
              <mxPoint x="2459" y="2696" />
              <mxPoint x="2459" y="3071" />
            </Array>
          </mxGeometry>
        </mxCell>
        <mxCell id="1VUmnsQ3BvMP89mHqFCF-7" style="edgeStyle=orthogonalEdgeStyle;rounded=0;orthogonalLoop=1;jettySize=auto;html=1;exitX=0.657;exitY=0.983;exitDx=0;exitDy=0;entryX=0.5;entryY=0;entryDx=0;entryDy=0;exitPerimeter=0;" edge="1" parent="1" source="1VUmnsQ3BvMP89mHqFCF-8" target="1VUmnsQ3BvMP89mHqFCF-122">
          <mxGeometry relative="1" as="geometry">
            <Array as="points">
              <mxPoint x="1881" y="2393" />
              <mxPoint x="2002" y="2393" />
            </Array>
          </mxGeometry>
        </mxCell>
        <mxCell id="1VUmnsQ3BvMP89mHqFCF-8" value="&lt;span style=&quot;font-size: 14pt; line-height: 105%; font-family: &amp;quot;Times New Roman&amp;quot;, serif;&quot;&gt;4. Cập nhật thông tin khách hàng&lt;/span&gt;" style="ellipse;whiteSpace=wrap;html=1;aspect=fixed;fillColor=#f8cecc;strokeColor=#b85450;rounded=0;" vertex="1" parent="1">
          <mxGeometry x="1793" y="237" width="134" height="134" as="geometry" />
        </mxCell>
        <mxCell id="1VUmnsQ3BvMP89mHqFCF-9" style="edgeStyle=orthogonalEdgeStyle;rounded=0;orthogonalLoop=1;jettySize=auto;html=1;exitX=1;exitY=0.5;exitDx=0;exitDy=0;entryX=0;entryY=0.5;entryDx=0;entryDy=0;" edge="1" parent="1" source="1VUmnsQ3BvMP89mHqFCF-10" target="1VUmnsQ3BvMP89mHqFCF-12">
          <mxGeometry relative="1" as="geometry" />
        </mxCell>
        <mxCell id="1VUmnsQ3BvMP89mHqFCF-10" value="&lt;span style=&quot;font-size:14.0pt;mso-bidi-font-size:11.0pt;&amp;lt;br/&amp;gt;line-height:105%;font-family:&amp;quot;Times New Roman&amp;quot;,serif;mso-fareast-font-family:&amp;lt;br/&amp;gt;Calibri;mso-fareast-theme-font:minor-latin;mso-bidi-theme-font:minor-bidi;&amp;lt;br/&amp;gt;mso-ansi-language:EN-US;mso-fareast-language:EN-US;mso-bidi-language:AR-SA&quot;&gt;5. Sinh&lt;br&gt;tự động mã phiếu và ngày lập&lt;/span&gt;" style="ellipse;whiteSpace=wrap;html=1;aspect=fixed;rounded=0;" vertex="1" parent="1">
          <mxGeometry x="650" y="237" width="134" height="134" as="geometry" />
        </mxCell>
        <mxCell id="1VUmnsQ3BvMP89mHqFCF-11" style="edgeStyle=orthogonalEdgeStyle;rounded=0;orthogonalLoop=1;jettySize=auto;html=1;exitX=1;exitY=0.5;exitDx=0;exitDy=0;entryX=0;entryY=0.5;entryDx=0;entryDy=0;" edge="1" parent="1" source="1VUmnsQ3BvMP89mHqFCF-12" target="1VUmnsQ3BvMP89mHqFCF-14">
          <mxGeometry relative="1" as="geometry" />
        </mxCell>
        <mxCell id="1VUmnsQ3BvMP89mHqFCF-12" value="&lt;p style=&quot;line-height:115%&quot; class=&quot;MsoNormal&quot;&gt;&lt;font style=&quot;font-size: 18px;&quot;&gt;2. Nhập thông tin khách thuê (Họ tên,&lt;br&gt;CCCD, Nơi cấp, Ngày cấp, Ngày sinh, SĐT, Email, Địa chỉ)&lt;/font&gt;&lt;/p&gt;" style="ellipse;whiteSpace=wrap;html=1;aspect=fixed;rounded=0;" vertex="1" parent="1">
          <mxGeometry x="980" y="217" width="175" height="175" as="geometry" />
        </mxCell>
        <mxCell id="1VUmnsQ3BvMP89mHqFCF-13" style="edgeStyle=orthogonalEdgeStyle;rounded=0;orthogonalLoop=1;jettySize=auto;html=1;exitX=1;exitY=0.5;exitDx=0;exitDy=0;entryX=0;entryY=0.5;entryDx=0;entryDy=0;" edge="1" parent="1" source="1VUmnsQ3BvMP89mHqFCF-14" target="1VUmnsQ3BvMP89mHqFCF-8">
          <mxGeometry relative="1" as="geometry" />
        </mxCell>
        <mxCell id="1VUmnsQ3BvMP89mHqFCF-14" value="&lt;span style=&quot;font-size:14.0pt;mso-bidi-font-size:11.0pt;&amp;lt;br/&amp;gt;line-height:105%;font-family:&amp;quot;Times New Roman&amp;quot;,serif;mso-fareast-font-family:&amp;lt;br/&amp;gt;Calibri;mso-fareast-theme-font:minor-latin;mso-bidi-theme-font:minor-bidi;&amp;lt;br/&amp;gt;mso-ansi-language:EN-US;mso-fareast-language:EN-US;mso-bidi-language:AR-SA&quot;&gt;3. Kiểm&lt;br&gt;tra tính hợp lệ của CCCD và số điện thoại&lt;/span&gt;" style="ellipse;whiteSpace=wrap;html=1;aspect=fixed;rounded=0;" vertex="1" parent="1">
          <mxGeometry x="1435" y="237" width="134" height="134" as="geometry" />
        </mxCell>
        <mxCell id="1VUmnsQ3BvMP89mHqFCF-15" style="edgeStyle=orthogonalEdgeStyle;rounded=0;orthogonalLoop=1;jettySize=auto;html=1;exitX=1;exitY=0.5;exitDx=0;exitDy=0;entryX=0;entryY=0.5;entryDx=0;entryDy=0;" edge="1" parent="1" source="1VUmnsQ3BvMP89mHqFCF-16" target="1VUmnsQ3BvMP89mHqFCF-25">
          <mxGeometry relative="1" as="geometry" />
        </mxCell>
        <mxCell id="1VUmnsQ3BvMP89mHqFCF-16" value="&lt;span style=&quot;font-size:14.0pt;mso-bidi-font-size:11.0pt;&amp;lt;br/&amp;gt;line-height:105%;font-family:&amp;quot;Times New Roman&amp;quot;,serif;mso-fareast-font-family:&amp;lt;br/&amp;gt;Calibri;mso-fareast-theme-font:minor-latin;mso-bidi-theme-font:minor-bidi;&amp;lt;br/&amp;gt;mso-ansi-language:EN-US;mso-fareast-language:EN-US;mso-bidi-language:AR-SA&quot;&gt;6. Xác&lt;br&gt;định loại căn hộ, tòa nhà&lt;/span&gt;" style="ellipse;whiteSpace=wrap;html=1;aspect=fixed;rounded=0;" vertex="1" parent="1">
          <mxGeometry x="2169" y="236" width="134" height="134" as="geometry" />
        </mxCell>
        <mxCell id="1VUmnsQ3BvMP89mHqFCF-17" style="edgeStyle=orthogonalEdgeStyle;rounded=0;orthogonalLoop=1;jettySize=auto;html=1;exitX=1;exitY=0.5;exitDx=0;exitDy=0;entryX=0;entryY=0.5;entryDx=0;entryDy=0;" edge="1" parent="1" source="1VUmnsQ3BvMP89mHqFCF-25" target="1VUmnsQ3BvMP89mHqFCF-27">
          <mxGeometry relative="1" as="geometry" />
        </mxCell>
        <mxCell id="1VUmnsQ3BvMP89mHqFCF-18" style="edgeStyle=orthogonalEdgeStyle;rounded=0;orthogonalLoop=1;jettySize=auto;html=1;exitX=1;exitY=1;exitDx=0;exitDy=0;entryX=0.5;entryY=0;entryDx=0;entryDy=0;" edge="1" parent="1" source="1VUmnsQ3BvMP89mHqFCF-25" target="1VUmnsQ3BvMP89mHqFCF-47">
          <mxGeometry relative="1" as="geometry">
            <Array as="points">
              <mxPoint x="2815" y="537" />
              <mxPoint x="1745" y="537" />
              <mxPoint x="1745" y="1091" />
              <mxPoint x="1597" y="1091" />
            </Array>
          </mxGeometry>
        </mxCell>
        <mxCell id="1VUmnsQ3BvMP89mHqFCF-19" style="edgeStyle=orthogonalEdgeStyle;rounded=0;orthogonalLoop=1;jettySize=auto;html=1;exitX=0.5;exitY=1;exitDx=0;exitDy=0;entryX=0.5;entryY=0;entryDx=0;entryDy=0;" edge="1" parent="1" source="1VUmnsQ3BvMP89mHqFCF-25" target="1VUmnsQ3BvMP89mHqFCF-38">
          <mxGeometry relative="1" as="geometry" />
        </mxCell>
        <mxCell id="1VUmnsQ3BvMP89mHqFCF-20" style="edgeStyle=orthogonalEdgeStyle;rounded=0;orthogonalLoop=1;jettySize=auto;html=1;entryX=0.5;entryY=0;entryDx=0;entryDy=0;" edge="1" parent="1" source="1VUmnsQ3BvMP89mHqFCF-25" target="1VUmnsQ3BvMP89mHqFCF-60">
          <mxGeometry relative="1" as="geometry">
            <Array as="points">
              <mxPoint x="2704" y="415" />
              <mxPoint x="1440" y="415" />
            </Array>
          </mxGeometry>
        </mxCell>
        <mxCell id="1VUmnsQ3BvMP89mHqFCF-21" style="edgeStyle=orthogonalEdgeStyle;rounded=0;orthogonalLoop=1;jettySize=auto;html=1;exitX=0.68;exitY=0.975;exitDx=0;exitDy=0;entryX=0.5;entryY=0;entryDx=0;entryDy=0;exitPerimeter=0;" edge="1" parent="1" source="1VUmnsQ3BvMP89mHqFCF-25" target="1VUmnsQ3BvMP89mHqFCF-87">
          <mxGeometry relative="1" as="geometry">
            <mxPoint x="933" y="2398" as="targetPoint" />
            <Array as="points">
              <mxPoint x="2791" y="391" />
              <mxPoint x="2791" y="835" />
              <mxPoint x="1032" y="835" />
              <mxPoint x="1032" y="2480" />
              <mxPoint x="1031" y="2480" />
            </Array>
          </mxGeometry>
        </mxCell>
        <mxCell id="1VUmnsQ3BvMP89mHqFCF-22" style="edgeStyle=orthogonalEdgeStyle;rounded=0;orthogonalLoop=1;jettySize=auto;html=1;exitX=0.95;exitY=0.711;exitDx=0;exitDy=0;entryX=0.5;entryY=0;entryDx=0;entryDy=0;exitPerimeter=0;" edge="1" parent="1" source="1VUmnsQ3BvMP89mHqFCF-25" target="1VUmnsQ3BvMP89mHqFCF-94">
          <mxGeometry relative="1" as="geometry">
            <Array as="points">
              <mxPoint x="2829" y="684" />
              <mxPoint x="1358" y="684" />
              <mxPoint x="1358" y="2380" />
              <mxPoint x="1276" y="2380" />
            </Array>
          </mxGeometry>
        </mxCell>
        <mxCell id="1VUmnsQ3BvMP89mHqFCF-23" style="edgeStyle=orthogonalEdgeStyle;rounded=0;orthogonalLoop=1;jettySize=auto;html=1;exitX=0.014;exitY=0.653;exitDx=0;exitDy=0;entryX=0.5;entryY=0;entryDx=0;entryDy=0;exitPerimeter=0;" edge="1" parent="1" source="1VUmnsQ3BvMP89mHqFCF-25" target="1VUmnsQ3BvMP89mHqFCF-103">
          <mxGeometry relative="1" as="geometry">
            <Array as="points">
              <mxPoint x="2696" y="382" />
              <mxPoint x="2118" y="382" />
            </Array>
          </mxGeometry>
        </mxCell>
        <mxCell id="1VUmnsQ3BvMP89mHqFCF-24" style="edgeStyle=orthogonalEdgeStyle;rounded=0;orthogonalLoop=1;jettySize=auto;html=1;exitX=0.992;exitY=0.601;exitDx=0;exitDy=0;entryX=0.5;entryY=0;entryDx=0;entryDy=0;exitPerimeter=0;" edge="1" parent="1" source="1VUmnsQ3BvMP89mHqFCF-25" target="1VUmnsQ3BvMP89mHqFCF-120">
          <mxGeometry relative="1" as="geometry">
            <Array as="points">
              <mxPoint x="2859" y="317" />
              <mxPoint x="2859" y="1991" />
              <mxPoint x="1737" y="1991" />
              <mxPoint x="1737" y="2951" />
              <mxPoint x="1368" y="2951" />
            </Array>
          </mxGeometry>
        </mxCell>
        <mxCell id="1VUmnsQ3BvMP89mHqFCF-25" value="&lt;span style=&quot;font-size: 14pt; line-height: 105%; font-family: &amp;quot;Times New Roman&amp;quot;, serif;&quot;&gt;&lt;font style=&quot;color: rgb(0, 0, 0);&quot;&gt;7. Nhận thông tin căn hộ qua số căn hộ&lt;/font&gt;&lt;/span&gt;" style="ellipse;whiteSpace=wrap;html=1;aspect=fixed;fillColor=#f8cecc;strokeColor=#b85450;rounded=0;" vertex="1" parent="1">
          <mxGeometry x="2694" y="232" width="142" height="142" as="geometry" />
        </mxCell>
        <mxCell id="1VUmnsQ3BvMP89mHqFCF-26" style="edgeStyle=orthogonalEdgeStyle;rounded=0;orthogonalLoop=1;jettySize=auto;html=1;exitX=1;exitY=0.5;exitDx=0;exitDy=0;entryX=0;entryY=0.5;entryDx=0;entryDy=0;" edge="1" parent="1" source="1VUmnsQ3BvMP89mHqFCF-27" target="1VUmnsQ3BvMP89mHqFCF-29">
          <mxGeometry relative="1" as="geometry" />
        </mxCell>
        <mxCell id="1VUmnsQ3BvMP89mHqFCF-27" value="&lt;span style=&quot;font-family: &amp;quot;Times New Roman&amp;quot;, serif;&quot;&gt;&lt;font style=&quot;font-size: 18px;&quot;&gt;8. Kiểm&lt;br&gt;soát dữ liệu nhập (Họ tên, CCCD, Ngày sinh, SĐT, Email, Địa chỉ, Thời hạn thuê,&lt;br&gt;Ghi chú)&lt;/font&gt;&lt;/span&gt;" style="ellipse;whiteSpace=wrap;html=1;aspect=fixed;rounded=0;" vertex="1" parent="1">
          <mxGeometry x="3157" y="218" width="169" height="169" as="geometry" />
        </mxCell>
        <mxCell id="1VUmnsQ3BvMP89mHqFCF-28" style="edgeStyle=orthogonalEdgeStyle;rounded=0;orthogonalLoop=1;jettySize=auto;html=1;exitX=1;exitY=0.5;exitDx=0;exitDy=0;entryX=0;entryY=0.5;entryDx=0;entryDy=0;" edge="1" parent="1" source="1VUmnsQ3BvMP89mHqFCF-29" target="1VUmnsQ3BvMP89mHqFCF-31">
          <mxGeometry relative="1" as="geometry" />
        </mxCell>
        <mxCell id="1VUmnsQ3BvMP89mHqFCF-29" value="&lt;span style=&quot;font-size:14.0pt;mso-bidi-font-size:11.0pt;&amp;lt;br/&amp;gt;line-height:105%;font-family:&amp;quot;Times New Roman&amp;quot;,serif;mso-fareast-font-family:&amp;lt;br/&amp;gt;Calibri;mso-fareast-theme-font:minor-latin;mso-bidi-theme-font:minor-bidi;&amp;lt;br/&amp;gt;mso-ansi-language:EN-US;mso-fareast-language:EN-US;mso-bidi-language:AR-SA&quot;&gt;9. Tự&lt;br&gt;động nhận ngày bắt đầu là ngày hiện tại&lt;/span&gt;" style="ellipse;whiteSpace=wrap;html=1;aspect=fixed;rounded=0;" vertex="1" parent="1">
          <mxGeometry x="3582" y="235" width="134" height="134" as="geometry" />
        </mxCell>
        <mxCell id="1VUmnsQ3BvMP89mHqFCF-30" style="edgeStyle=orthogonalEdgeStyle;rounded=0;orthogonalLoop=1;jettySize=auto;html=1;exitX=1;exitY=0.5;exitDx=0;exitDy=0;entryX=0;entryY=0.5;entryDx=0;entryDy=0;" edge="1" parent="1" source="1VUmnsQ3BvMP89mHqFCF-31" target="1VUmnsQ3BvMP89mHqFCF-155">
          <mxGeometry relative="1" as="geometry" />
        </mxCell>
        <mxCell id="1VUmnsQ3BvMP89mHqFCF-31" value="&lt;span style=&quot;font-size:14.0pt;mso-bidi-font-size:11.0pt;&amp;lt;br/&amp;gt;line-height:105%;font-family:&amp;quot;Times New Roman&amp;quot;,serif;mso-fareast-font-family:&amp;lt;br/&amp;gt;Calibri;mso-fareast-theme-font:minor-latin;mso-bidi-theme-font:minor-bidi;&amp;lt;br/&amp;gt;mso-ansi-language:EN-US;mso-fareast-language:EN-US;mso-bidi-language:AR-SA&quot;&gt;10. Cập&lt;br&gt;nhật, tạo mới thông tin phiếu tiếp nhận&lt;/span&gt;" style="ellipse;whiteSpace=wrap;html=1;aspect=fixed;rounded=0;" vertex="1" parent="1">
          <mxGeometry x="3991" y="236" width="134" height="134" as="geometry" />
        </mxCell>
        <mxCell id="1VUmnsQ3BvMP89mHqFCF-32" style="edgeStyle=orthogonalEdgeStyle;rounded=0;orthogonalLoop=1;jettySize=auto;html=1;exitX=1;exitY=0.5;exitDx=0;exitDy=0;entryX=0;entryY=0.5;entryDx=0;entryDy=0;" edge="1" parent="1" source="1VUmnsQ3BvMP89mHqFCF-33" target="1VUmnsQ3BvMP89mHqFCF-40">
          <mxGeometry relative="1" as="geometry" />
        </mxCell>
        <mxCell id="1VUmnsQ3BvMP89mHqFCF-33" value="&lt;span style=&quot;font-size: 14pt; line-height: 105%; font-family: &amp;quot;Times New Roman&amp;quot;, serif;&quot;&gt;&lt;font style=&quot;color: rgb(0, 0, 0);&quot;&gt;11. Mở form yêu cầu trả căn hộ&lt;/font&gt;&lt;/span&gt;" style="ellipse;whiteSpace=wrap;html=1;aspect=fixed;fillColor=#dae8fc;strokeColor=#6c8ebf;rounded=0;" vertex="1" parent="1">
          <mxGeometry x="253" y="893" width="134" height="134" as="geometry" />
        </mxCell>
        <mxCell id="1VUmnsQ3BvMP89mHqFCF-34" style="edgeStyle=orthogonalEdgeStyle;rounded=0;orthogonalLoop=1;jettySize=auto;html=1;exitX=1;exitY=0;exitDx=0;exitDy=0;entryX=0;entryY=1;entryDx=0;entryDy=0;" edge="1" parent="1" source="1VUmnsQ3BvMP89mHqFCF-36" target="1VUmnsQ3BvMP89mHqFCF-25">
          <mxGeometry relative="1" as="geometry">
            <Array as="points">
              <mxPoint x="1258" y="476" />
              <mxPoint x="2715" y="476" />
            </Array>
          </mxGeometry>
        </mxCell>
        <mxCell id="1VUmnsQ3BvMP89mHqFCF-35" style="edgeStyle=orthogonalEdgeStyle;rounded=0;orthogonalLoop=1;jettySize=auto;html=1;exitX=1;exitY=1;exitDx=0;exitDy=0;entryX=0.5;entryY=0;entryDx=0;entryDy=0;" edge="1" parent="1" source="1VUmnsQ3BvMP89mHqFCF-36" target="1VUmnsQ3BvMP89mHqFCF-65">
          <mxGeometry relative="1" as="geometry" />
        </mxCell>
        <mxCell id="1VUmnsQ3BvMP89mHqFCF-36" value="&lt;span style=&quot;font-size: 14pt; line-height: 105%; font-family: &amp;quot;Times New Roman&amp;quot;, serif;&quot;&gt;&lt;font style=&quot;color: rgb(0, 0, 0);&quot;&gt;12. Nhận thông tin khách hàng qua mã khách hàng&lt;/font&gt;&lt;/span&gt;" style="ellipse;whiteSpace=wrap;html=1;aspect=fixed;fillColor=#f8cecc;strokeColor=#b85450;rounded=0;" vertex="1" parent="1">
          <mxGeometry x="1143" y="894" width="134" height="134" as="geometry" />
        </mxCell>
        <mxCell id="1VUmnsQ3BvMP89mHqFCF-37" style="edgeStyle=orthogonalEdgeStyle;rounded=0;orthogonalLoop=1;jettySize=auto;html=1;exitX=1;exitY=0.5;exitDx=0;exitDy=0;entryX=0;entryY=0.5;entryDx=0;entryDy=0;" edge="1" parent="1" source="1VUmnsQ3BvMP89mHqFCF-38" target="1VUmnsQ3BvMP89mHqFCF-42">
          <mxGeometry relative="1" as="geometry" />
        </mxCell>
        <mxCell id="1VUmnsQ3BvMP89mHqFCF-38" value="&lt;span style=&quot;font-size:14.0pt;mso-bidi-font-size:11.0pt;&amp;lt;br/&amp;gt;line-height:105%;font-family:&amp;quot;Times New Roman&amp;quot;,serif;mso-fareast-font-family:&amp;lt;br/&amp;gt;Calibri;mso-fareast-theme-font:minor-latin;mso-bidi-theme-font:minor-bidi;&amp;lt;br/&amp;gt;mso-ansi-language:EN-US;mso-fareast-language:EN-US;mso-bidi-language:AR-SA&quot;&gt;13. Tự&lt;br&gt;động nhận ngày chuyển đi là ngày hiện tại&lt;/span&gt;" style="ellipse;whiteSpace=wrap;html=1;aspect=fixed;rounded=0;" vertex="1" parent="1">
          <mxGeometry x="1497" y="893" width="134" height="134" as="geometry" />
        </mxCell>
        <mxCell id="1VUmnsQ3BvMP89mHqFCF-39" style="edgeStyle=orthogonalEdgeStyle;rounded=0;orthogonalLoop=1;jettySize=auto;html=1;exitX=1;exitY=0.5;exitDx=0;exitDy=0;entryX=0;entryY=0.5;entryDx=0;entryDy=0;" edge="1" parent="1" source="1VUmnsQ3BvMP89mHqFCF-40" target="1VUmnsQ3BvMP89mHqFCF-36">
          <mxGeometry relative="1" as="geometry" />
        </mxCell>
        <mxCell id="1VUmnsQ3BvMP89mHqFCF-40" value="&lt;span style=&quot;font-size:14.0pt;mso-bidi-font-size:11.0pt;&amp;lt;br/&amp;gt;line-height:105%;font-family:&amp;quot;Times New Roman&amp;quot;,serif;mso-fareast-font-family:&amp;lt;br/&amp;gt;Calibri;mso-fareast-theme-font:minor-latin;mso-bidi-theme-font:minor-bidi;&amp;lt;br/&amp;gt;mso-ansi-language:EN-US;mso-fareast-language:EN-US;mso-bidi-language:AR-SA&quot;&gt;14. Sinh&lt;br&gt;tự động mã phiếu và ngày lập&lt;/span&gt;" style="ellipse;whiteSpace=wrap;html=1;aspect=fixed;rounded=0;" vertex="1" parent="1">
          <mxGeometry x="657" y="894" width="134" height="134" as="geometry" />
        </mxCell>
        <mxCell id="1VUmnsQ3BvMP89mHqFCF-41" style="edgeStyle=orthogonalEdgeStyle;rounded=0;orthogonalLoop=1;jettySize=auto;html=1;exitX=1;exitY=0.5;exitDx=0;exitDy=0;entryX=0;entryY=0.5;entryDx=0;entryDy=0;" edge="1" parent="1" source="1VUmnsQ3BvMP89mHqFCF-42" target="1VUmnsQ3BvMP89mHqFCF-43">
          <mxGeometry relative="1" as="geometry" />
        </mxCell>
        <mxCell id="1VUmnsQ3BvMP89mHqFCF-42" value="&lt;span style=&quot;font-size:14.0pt;mso-bidi-font-size:11.0pt;&amp;lt;br/&amp;gt;line-height:105%;font-family:&amp;quot;Times New Roman&amp;quot;,serif;mso-fareast-font-family:&amp;lt;br/&amp;gt;Calibri;mso-fareast-theme-font:minor-latin;mso-bidi-theme-font:minor-bidi;&amp;lt;br/&amp;gt;mso-ansi-language:EN-US;mso-fareast-language:EN-US;mso-bidi-language:AR-SA&quot;&gt;15. Kiểm&lt;br&gt;tra thông tin nợ cần thanh toán&lt;/span&gt;" style="ellipse;whiteSpace=wrap;html=1;aspect=fixed;rounded=0;" vertex="1" parent="1">
          <mxGeometry x="1937" y="891" width="134" height="134" as="geometry" />
        </mxCell>
        <mxCell id="1VUmnsQ3BvMP89mHqFCF-43" value="&lt;span style=&quot;font-size:14.0pt;mso-bidi-font-size:11.0pt;&amp;lt;br/&amp;gt;line-height:105%;font-family:&amp;quot;Times New Roman&amp;quot;,serif;mso-fareast-font-family:&amp;lt;br/&amp;gt;Calibri;mso-fareast-theme-font:minor-latin;mso-bidi-theme-font:minor-bidi;&amp;lt;br/&amp;gt;mso-ansi-language:EN-US;mso-fareast-language:EN-US;mso-bidi-language:AR-SA&quot;&gt;16. Cập&lt;br&gt;nhật, tạo mới thông tin phiếu yêu cầu trả căn hộ&lt;/span&gt;" style="ellipse;whiteSpace=wrap;html=1;aspect=fixed;rounded=0;" vertex="1" parent="1">
          <mxGeometry x="2352" y="893" width="134" height="134" as="geometry" />
        </mxCell>
        <mxCell id="1VUmnsQ3BvMP89mHqFCF-44" style="edgeStyle=orthogonalEdgeStyle;rounded=0;orthogonalLoop=1;jettySize=auto;html=1;exitX=1;exitY=0.5;exitDx=0;exitDy=0;" edge="1" parent="1" source="1VUmnsQ3BvMP89mHqFCF-45" target="1VUmnsQ3BvMP89mHqFCF-51">
          <mxGeometry relative="1" as="geometry" />
        </mxCell>
        <mxCell id="1VUmnsQ3BvMP89mHqFCF-45" value="&lt;span style=&quot;font-size: 14pt; line-height: 105%; font-family: &amp;quot;Times New Roman&amp;quot;, serif;&quot;&gt;&lt;font style=&quot;color: rgb(0, 0, 0);&quot;&gt;17. Mở form yêu cầu sửa chữa&lt;/font&gt;&lt;/span&gt;" style="ellipse;whiteSpace=wrap;html=1;aspect=fixed;fillColor=#dae8fc;strokeColor=#6c8ebf;rounded=0;" vertex="1" parent="1">
          <mxGeometry x="250" y="1344" width="134" height="134" as="geometry" />
        </mxCell>
        <mxCell id="1VUmnsQ3BvMP89mHqFCF-46" style="edgeStyle=orthogonalEdgeStyle;rounded=0;orthogonalLoop=1;jettySize=auto;html=1;exitX=1;exitY=0.5;exitDx=0;exitDy=0;entryX=0;entryY=0.5;entryDx=0;entryDy=0;" edge="1" parent="1" source="1VUmnsQ3BvMP89mHqFCF-47" target="1VUmnsQ3BvMP89mHqFCF-49">
          <mxGeometry relative="1" as="geometry" />
        </mxCell>
        <mxCell id="1VUmnsQ3BvMP89mHqFCF-47" value="&lt;span style=&quot;font-size:14.0pt;mso-bidi-font-size:11.0pt;&amp;lt;br/&amp;gt;line-height:105%;font-family:&amp;quot;Times New Roman&amp;quot;,serif;mso-fareast-font-family:&amp;lt;br/&amp;gt;Calibri;mso-fareast-theme-font:minor-latin;mso-bidi-theme-font:minor-bidi;&amp;lt;br/&amp;gt;mso-ansi-language:EN-US;mso-fareast-language:EN-US;mso-bidi-language:AR-SA&quot;&gt;18. Ghi&lt;br&gt;nhận thông tin sửa chữa&lt;/span&gt;" style="ellipse;whiteSpace=wrap;html=1;aspect=fixed;rounded=0;" vertex="1" parent="1">
          <mxGeometry x="1530" y="1344" width="134" height="134" as="geometry" />
        </mxCell>
        <mxCell id="1VUmnsQ3BvMP89mHqFCF-48" style="edgeStyle=orthogonalEdgeStyle;rounded=0;orthogonalLoop=1;jettySize=auto;html=1;exitX=1;exitY=0.5;exitDx=0;exitDy=0;entryX=0;entryY=0.5;entryDx=0;entryDy=0;" edge="1" parent="1" source="1VUmnsQ3BvMP89mHqFCF-49" target="1VUmnsQ3BvMP89mHqFCF-53">
          <mxGeometry relative="1" as="geometry" />
        </mxCell>
        <mxCell id="1VUmnsQ3BvMP89mHqFCF-49" value="&lt;span style=&quot;font-size:14.0pt;mso-bidi-font-size:11.0pt;&amp;lt;br/&amp;gt;line-height:105%;font-family:&amp;quot;Times New Roman&amp;quot;,serif;mso-fareast-font-family:&amp;lt;br/&amp;gt;Calibri;mso-fareast-theme-font:minor-latin;mso-bidi-theme-font:minor-bidi;&amp;lt;br/&amp;gt;mso-ansi-language:EN-US;mso-fareast-language:EN-US;mso-bidi-language:AR-SA&quot;&gt;19. Xác&lt;br&gt;định mức độ ưu tiên&lt;/span&gt;" style="ellipse;whiteSpace=wrap;html=1;aspect=fixed;rounded=0;" vertex="1" parent="1">
          <mxGeometry x="1922" y="1342" width="134" height="134" as="geometry" />
        </mxCell>
        <mxCell id="1VUmnsQ3BvMP89mHqFCF-50" style="edgeStyle=orthogonalEdgeStyle;rounded=0;orthogonalLoop=1;jettySize=auto;html=1;exitX=1;exitY=0.5;exitDx=0;exitDy=0;entryX=0;entryY=1;entryDx=0;entryDy=0;" edge="1" parent="1" source="1VUmnsQ3BvMP89mHqFCF-51" target="1VUmnsQ3BvMP89mHqFCF-36">
          <mxGeometry relative="1" as="geometry" />
        </mxCell>
        <mxCell id="1VUmnsQ3BvMP89mHqFCF-51" value="&lt;span style=&quot;font-size:14.0pt;mso-bidi-font-size:11.0pt;&amp;lt;br/&amp;gt;line-height:105%;font-family:&amp;quot;Times New Roman&amp;quot;,serif;mso-fareast-font-family:&amp;lt;br/&amp;gt;Calibri;mso-fareast-theme-font:minor-latin;mso-bidi-theme-font:minor-bidi;&amp;lt;br/&amp;gt;mso-ansi-language:EN-US;mso-fareast-language:EN-US;mso-bidi-language:AR-SA&quot;&gt;20. Sinh&lt;br&gt;tự động số phiếu và ngày lập&lt;/span&gt;" style="ellipse;whiteSpace=wrap;html=1;aspect=fixed;rounded=0;" vertex="1" parent="1">
          <mxGeometry x="693" y="1345" width="134" height="134" as="geometry" />
        </mxCell>
        <mxCell id="1VUmnsQ3BvMP89mHqFCF-52" style="edgeStyle=orthogonalEdgeStyle;rounded=0;orthogonalLoop=1;jettySize=auto;html=1;exitX=1;exitY=0.5;exitDx=0;exitDy=0;entryX=0;entryY=0.5;entryDx=0;entryDy=0;" edge="1" parent="1" source="1VUmnsQ3BvMP89mHqFCF-53" target="1VUmnsQ3BvMP89mHqFCF-54">
          <mxGeometry relative="1" as="geometry" />
        </mxCell>
        <mxCell id="1VUmnsQ3BvMP89mHqFCF-53" value="&lt;span style=&quot;font-size:14.0pt;mso-bidi-font-size:11.0pt;&amp;lt;br/&amp;gt;line-height:105%;font-family:&amp;quot;Times New Roman&amp;quot;,serif;mso-fareast-font-family:&amp;lt;br/&amp;gt;Calibri;mso-fareast-theme-font:minor-latin;mso-bidi-theme-font:minor-bidi;&amp;lt;br/&amp;gt;mso-ansi-language:EN-US;mso-fareast-language:EN-US;mso-bidi-language:AR-SA&quot;&gt;21. Kiểm&lt;br&gt;tra thông tin khách hàng, căn hộ&lt;/span&gt;" style="ellipse;whiteSpace=wrap;html=1;aspect=fixed;rounded=0;" vertex="1" parent="1">
          <mxGeometry x="2358" y="1343" width="134" height="134" as="geometry" />
        </mxCell>
        <mxCell id="1VUmnsQ3BvMP89mHqFCF-54" value="&lt;span style=&quot;font-size:14.0pt;mso-bidi-font-size:11.0pt;&amp;lt;br/&amp;gt;line-height:105%;font-family:&amp;quot;Times New Roman&amp;quot;,serif;mso-fareast-font-family:&amp;lt;br/&amp;gt;Calibri;mso-fareast-theme-font:minor-latin;mso-bidi-theme-font:minor-bidi;&amp;lt;br/&amp;gt;mso-ansi-language:EN-US;mso-fareast-language:EN-US;mso-bidi-language:AR-SA&quot;&gt;22. Cập nhật,&amp;nbsp;&lt;/span&gt;&lt;div&gt;&lt;span style=&quot;font-size:14.0pt;mso-bidi-font-size:11.0pt;&amp;lt;br/&amp;gt;line-height:105%;font-family:&amp;quot;Times New Roman&amp;quot;,serif;mso-fareast-font-family:&amp;lt;br/&amp;gt;Calibri;mso-fareast-theme-font:minor-latin;mso-bidi-theme-font:minor-bidi;&amp;lt;br/&amp;gt;mso-ansi-language:EN-US;mso-fareast-language:EN-US;mso-bidi-language:AR-SA&quot;&gt;tạo mới thông tin phiếu yêu cầu sửa chữa&lt;/span&gt;&lt;/div&gt;" style="ellipse;whiteSpace=wrap;html=1;aspect=fixed;rounded=0;" vertex="1" parent="1">
          <mxGeometry x="2908" y="1342" width="134" height="134" as="geometry" />
        </mxCell>
        <mxCell id="1VUmnsQ3BvMP89mHqFCF-55" style="edgeStyle=orthogonalEdgeStyle;rounded=0;orthogonalLoop=1;jettySize=auto;html=1;exitX=1;exitY=0.5;exitDx=0;exitDy=0;entryX=0;entryY=0.5;entryDx=0;entryDy=0;" edge="1" parent="1" source="1VUmnsQ3BvMP89mHqFCF-56" target="1VUmnsQ3BvMP89mHqFCF-58">
          <mxGeometry relative="1" as="geometry" />
        </mxCell>
        <mxCell id="1VUmnsQ3BvMP89mHqFCF-56" value="&lt;span style=&quot;font-size:14.0pt;mso-bidi-font-size:11.0pt;&amp;lt;br/&amp;gt;line-height:105%;font-family:&amp;quot;Times New Roman&amp;quot;,serif;mso-fareast-font-family:&amp;lt;br/&amp;gt;Calibri;mso-fareast-theme-font:minor-latin;mso-bidi-theme-font:minor-bidi;&amp;lt;br/&amp;gt;mso-ansi-language:EN-US;mso-fareast-language:EN-US;mso-bidi-language:AR-SA&quot;&gt;23. Mở&lt;br&gt;form hợp đồng&lt;/span&gt;" style="ellipse;whiteSpace=wrap;html=1;aspect=fixed;fillColor=#dae8fc;strokeColor=#6c8ebf;rounded=0;" vertex="1" parent="1">
          <mxGeometry x="246" y="1746" width="134" height="134" as="geometry" />
        </mxCell>
        <mxCell id="1VUmnsQ3BvMP89mHqFCF-57" style="edgeStyle=orthogonalEdgeStyle;rounded=0;orthogonalLoop=1;jettySize=auto;html=1;exitX=1;exitY=0.5;exitDx=0;exitDy=0;entryX=0.5;entryY=1;entryDx=0;entryDy=0;" edge="1" parent="1" source="1VUmnsQ3BvMP89mHqFCF-58" target="1VUmnsQ3BvMP89mHqFCF-36">
          <mxGeometry relative="1" as="geometry" />
        </mxCell>
        <mxCell id="1VUmnsQ3BvMP89mHqFCF-58" value="&lt;span style=&quot;font-size:14.0pt;mso-bidi-font-size:11.0pt;&amp;lt;br/&amp;gt;line-height:105%;font-family:&amp;quot;Times New Roman&amp;quot;,serif;mso-fareast-font-family:&amp;lt;br/&amp;gt;Calibri;mso-fareast-theme-font:minor-latin;mso-bidi-theme-font:minor-bidi;&amp;lt;br/&amp;gt;mso-ansi-language:EN-US;mso-fareast-language:EN-US;mso-bidi-language:AR-SA&quot;&gt;24. Sinh&lt;br&gt;tự động số hợp đồng&lt;/span&gt;" style="ellipse;whiteSpace=wrap;html=1;aspect=fixed;rounded=0;" vertex="1" parent="1">
          <mxGeometry x="691" y="1748" width="134" height="134" as="geometry" />
        </mxCell>
        <mxCell id="1VUmnsQ3BvMP89mHqFCF-59" style="edgeStyle=orthogonalEdgeStyle;rounded=0;orthogonalLoop=1;jettySize=auto;html=1;exitX=1;exitY=0.5;exitDx=0;exitDy=0;entryX=0;entryY=0.5;entryDx=0;entryDy=0;" edge="1" parent="1" source="1VUmnsQ3BvMP89mHqFCF-60" target="1VUmnsQ3BvMP89mHqFCF-62">
          <mxGeometry relative="1" as="geometry" />
        </mxCell>
        <mxCell id="1VUmnsQ3BvMP89mHqFCF-60" value="&lt;span style=&quot;font-size:14.0pt;mso-bidi-font-size:11.0pt;&amp;lt;br/&amp;gt;line-height:105%;font-family:&amp;quot;Times New Roman&amp;quot;,serif;mso-fareast-font-family:&amp;lt;br/&amp;gt;Calibri;mso-fareast-theme-font:minor-latin;mso-bidi-theme-font:minor-bidi;&amp;lt;br/&amp;gt;mso-ansi-language:EN-US;mso-fareast-language:EN-US;mso-bidi-language:AR-SA&quot;&gt;25. Kiểm tra&amp;nbsp;&lt;/span&gt;&lt;div&gt;&lt;span style=&quot;font-size:14.0pt;mso-bidi-font-size:11.0pt;&amp;lt;br/&amp;gt;line-height:105%;font-family:&amp;quot;Times New Roman&amp;quot;,serif;mso-fareast-font-family:&amp;lt;br/&amp;gt;Calibri;mso-fareast-theme-font:minor-latin;mso-bidi-theme-font:minor-bidi;&amp;lt;br/&amp;gt;mso-ansi-language:EN-US;mso-fareast-language:EN-US;mso-bidi-language:AR-SA&quot;&gt;thông tin khách hàng, căn hộ, thời hạn thuê&lt;/span&gt;&lt;/div&gt;" style="ellipse;whiteSpace=wrap;html=1;aspect=fixed;rounded=0;" vertex="1" parent="1">
          <mxGeometry x="1373" y="1743" width="134" height="134" as="geometry" />
        </mxCell>
        <mxCell id="1VUmnsQ3BvMP89mHqFCF-61" style="edgeStyle=orthogonalEdgeStyle;rounded=0;orthogonalLoop=1;jettySize=auto;html=1;exitX=1;exitY=0.5;exitDx=0;exitDy=0;entryX=0;entryY=0.5;entryDx=0;entryDy=0;" edge="1" parent="1" source="1VUmnsQ3BvMP89mHqFCF-62" target="1VUmnsQ3BvMP89mHqFCF-160">
          <mxGeometry relative="1" as="geometry" />
        </mxCell>
        <mxCell id="1VUmnsQ3BvMP89mHqFCF-62" value="&lt;span style=&quot;font-size:14.0pt;mso-bidi-font-size:11.0pt;&amp;lt;br/&amp;gt;line-height:105%;font-family:&amp;quot;Times New Roman&amp;quot;,serif;mso-fareast-font-family:&amp;lt;br/&amp;gt;Calibri;mso-fareast-theme-font:minor-latin;mso-bidi-theme-font:minor-bidi;&amp;lt;br/&amp;gt;mso-ansi-language:EN-US;mso-fareast-language:EN-US;mso-bidi-language:AR-SA&quot;&gt;26. Cập&lt;br&gt;nhật, tạo mới thông tin hợp đồng&lt;/span&gt;" style="ellipse;whiteSpace=wrap;html=1;aspect=fixed;rounded=0;" vertex="1" parent="1">
          <mxGeometry x="1918" y="1745" width="134" height="134" as="geometry" />
        </mxCell>
        <mxCell id="1VUmnsQ3BvMP89mHqFCF-63" value="&lt;span style=&quot;font-size:14.0pt;mso-bidi-font-size:11.0pt;&amp;lt;br/&amp;gt;line-height:105%;font-family:&amp;quot;Times New Roman&amp;quot;,serif;mso-fareast-font-family:&amp;lt;br/&amp;gt;Calibri;mso-fareast-theme-font:minor-latin;mso-bidi-theme-font:minor-bidi;&amp;lt;br/&amp;gt;mso-ansi-language:EN-US;mso-fareast-language:EN-US;mso-bidi-language:AR-SA&quot;&gt;27. Mở&lt;br&gt;form biên bản thanh lý hợp đồng&lt;/span&gt;" style="ellipse;whiteSpace=wrap;html=1;aspect=fixed;fillColor=#dae8fc;strokeColor=#6c8ebf;rounded=0;" vertex="1" parent="1">
          <mxGeometry x="234" y="2120" width="134" height="134" as="geometry" />
        </mxCell>
        <mxCell id="1VUmnsQ3BvMP89mHqFCF-64" style="edgeStyle=orthogonalEdgeStyle;rounded=0;orthogonalLoop=1;jettySize=auto;html=1;exitX=1;exitY=0.5;exitDx=0;exitDy=0;entryX=0;entryY=0.5;entryDx=0;entryDy=0;" edge="1" parent="1" source="1VUmnsQ3BvMP89mHqFCF-65" target="1VUmnsQ3BvMP89mHqFCF-67">
          <mxGeometry relative="1" as="geometry" />
        </mxCell>
        <mxCell id="1VUmnsQ3BvMP89mHqFCF-65" value="&lt;span style=&quot;font-size:14.0pt;mso-bidi-font-size:11.0pt;&amp;lt;br/&amp;gt;line-height:105%;font-family:&amp;quot;Times New Roman&amp;quot;,serif;mso-fareast-font-family:&amp;lt;br/&amp;gt;Calibri;mso-fareast-theme-font:minor-latin;mso-bidi-theme-font:minor-bidi;&amp;lt;br/&amp;gt;mso-ansi-language:EN-US;mso-fareast-language:EN-US;mso-bidi-language:AR-SA&quot;&gt;28. Nhận&lt;br&gt;thông tin hợp đồng cần thanh lý qua số hợp đồng&lt;/span&gt;" style="ellipse;whiteSpace=wrap;html=1;aspect=fixed;rounded=0;" vertex="1" parent="1">
          <mxGeometry x="1192" y="2110" width="134" height="134" as="geometry" />
        </mxCell>
        <mxCell id="1VUmnsQ3BvMP89mHqFCF-66" style="edgeStyle=orthogonalEdgeStyle;rounded=0;orthogonalLoop=1;jettySize=auto;html=1;exitX=1;exitY=0.5;exitDx=0;exitDy=0;entryX=0;entryY=0.5;entryDx=0;entryDy=0;" edge="1" parent="1" source="1VUmnsQ3BvMP89mHqFCF-67" target="1VUmnsQ3BvMP89mHqFCF-68">
          <mxGeometry relative="1" as="geometry" />
        </mxCell>
        <mxCell id="1VUmnsQ3BvMP89mHqFCF-67" value="&lt;span style=&quot;font-size:14.0pt;mso-bidi-font-size:11.0pt;&amp;lt;br/&amp;gt;line-height:105%;font-family:&amp;quot;Times New Roman&amp;quot;,serif;mso-fareast-font-family:&amp;lt;br/&amp;gt;Calibri;mso-fareast-theme-font:minor-latin;mso-bidi-theme-font:minor-bidi;&amp;lt;br/&amp;gt;mso-ansi-language:EN-US;mso-fareast-language:EN-US;mso-bidi-language:AR-SA&quot;&gt;29. Kiểm&lt;br&gt;tra thông tin khách hàng, hợp đồng&lt;/span&gt;" style="ellipse;whiteSpace=wrap;html=1;aspect=fixed;rounded=0;" vertex="1" parent="1">
          <mxGeometry x="1922" y="2112" width="134" height="134" as="geometry" />
        </mxCell>
        <mxCell id="1VUmnsQ3BvMP89mHqFCF-68" value="&lt;span style=&quot;font-size:14.0pt;mso-bidi-font-size:11.0pt;&amp;lt;br/&amp;gt;line-height:105%;font-family:&amp;quot;Times New Roman&amp;quot;,serif;mso-fareast-font-family:&amp;lt;br/&amp;gt;Calibri;mso-fareast-theme-font:minor-latin;mso-bidi-theme-font:minor-bidi;&amp;lt;br/&amp;gt;mso-ansi-language:EN-US;mso-fareast-language:EN-US;mso-bidi-language:AR-SA&quot;&gt;30. Cập&lt;br&gt;nhật, tạo mới thông tin biên bản thanh lý hợp đồng&lt;/span&gt;" style="ellipse;whiteSpace=wrap;html=1;aspect=fixed;rounded=0;" vertex="1" parent="1">
          <mxGeometry x="2602" y="2112" width="134" height="134" as="geometry" />
        </mxCell>
        <mxCell id="1VUmnsQ3BvMP89mHqFCF-69" style="edgeStyle=orthogonalEdgeStyle;rounded=0;orthogonalLoop=1;jettySize=auto;html=1;exitX=1;exitY=0.5;exitDx=0;exitDy=0;entryX=0;entryY=0.5;entryDx=0;entryDy=0;" edge="1" parent="1" source="1VUmnsQ3BvMP89mHqFCF-70" target="1VUmnsQ3BvMP89mHqFCF-72">
          <mxGeometry relative="1" as="geometry" />
        </mxCell>
        <mxCell id="1VUmnsQ3BvMP89mHqFCF-70" value="&lt;span style=&quot;font-size:14.0pt;mso-bidi-font-size:11.0pt;&amp;lt;br/&amp;gt;line-height:105%;font-family:&amp;quot;Times New Roman&amp;quot;,serif;mso-fareast-font-family:&amp;lt;br/&amp;gt;Calibri;mso-fareast-theme-font:minor-latin;mso-bidi-theme-font:minor-bidi;&amp;lt;br/&amp;gt;mso-ansi-language:EN-US;mso-fareast-language:EN-US;mso-bidi-language:AR-SA&quot;&gt;32. Truy&lt;br&gt;xuất dữ liệu các loại hóa đơn theo tháng được yêu cầu&lt;/span&gt;" style="ellipse;whiteSpace=wrap;html=1;aspect=fixed;rounded=0;" vertex="1" parent="1">
          <mxGeometry x="808" y="3467" width="134" height="134" as="geometry" />
        </mxCell>
        <mxCell id="1VUmnsQ3BvMP89mHqFCF-71" style="edgeStyle=orthogonalEdgeStyle;rounded=0;orthogonalLoop=1;jettySize=auto;html=1;exitX=1;exitY=0.5;exitDx=0;exitDy=0;entryX=0;entryY=0.5;entryDx=0;entryDy=0;" edge="1" parent="1" source="1VUmnsQ3BvMP89mHqFCF-72" target="1VUmnsQ3BvMP89mHqFCF-76">
          <mxGeometry relative="1" as="geometry" />
        </mxCell>
        <mxCell id="1VUmnsQ3BvMP89mHqFCF-72" value="&lt;span style=&quot;font-size:14.0pt;mso-bidi-font-size:11.0pt;&amp;lt;br/&amp;gt;line-height:105%;font-family:&amp;quot;Times New Roman&amp;quot;,serif;mso-fareast-font-family:&amp;lt;br/&amp;gt;Calibri;mso-fareast-theme-font:minor-latin;mso-bidi-theme-font:minor-bidi;&amp;lt;br/&amp;gt;mso-ansi-language:EN-US;mso-fareast-language:EN-US;mso-bidi-language:AR-SA&quot;&gt;33. Tính&lt;br&gt;tổng doanh thu theo tháng&lt;/span&gt;" style="ellipse;whiteSpace=wrap;html=1;aspect=fixed;rounded=0;" vertex="1" parent="1">
          <mxGeometry x="1048" y="3467" width="134" height="134" as="geometry" />
        </mxCell>
        <mxCell id="1VUmnsQ3BvMP89mHqFCF-73" style="edgeStyle=orthogonalEdgeStyle;rounded=0;orthogonalLoop=1;jettySize=auto;html=1;exitX=1;exitY=0.5;exitDx=0;exitDy=0;entryX=0;entryY=0.5;entryDx=0;entryDy=0;" edge="1" parent="1" source="1VUmnsQ3BvMP89mHqFCF-74" target="1VUmnsQ3BvMP89mHqFCF-70">
          <mxGeometry relative="1" as="geometry" />
        </mxCell>
        <mxCell id="1VUmnsQ3BvMP89mHqFCF-74" value="&lt;span style=&quot;font-size:14.0pt;mso-bidi-font-size:11.0pt;&amp;lt;br/&amp;gt;line-height:105%;font-family:&amp;quot;Times New Roman&amp;quot;,serif;mso-fareast-font-family:&amp;lt;br/&amp;gt;Calibri;mso-fareast-theme-font:minor-latin;mso-bidi-theme-font:minor-bidi;&amp;lt;br/&amp;gt;mso-ansi-language:EN-US;mso-fareast-language:EN-US;mso-bidi-language:AR-SA&quot;&gt;31. Ghi&lt;br&gt;nhận thông tin tháng cần báo cáo doanh thu&lt;/span&gt;" style="ellipse;whiteSpace=wrap;html=1;aspect=fixed;rounded=0;" vertex="1" parent="1">
          <mxGeometry x="471" y="3468" width="134" height="134" as="geometry" />
        </mxCell>
        <mxCell id="1VUmnsQ3BvMP89mHqFCF-75" style="edgeStyle=orthogonalEdgeStyle;rounded=0;orthogonalLoop=1;jettySize=auto;html=1;exitX=1;exitY=0.5;exitDx=0;exitDy=0;entryX=0;entryY=0.5;entryDx=0;entryDy=0;" edge="1" parent="1" source="1VUmnsQ3BvMP89mHqFCF-76" target="1VUmnsQ3BvMP89mHqFCF-124">
          <mxGeometry relative="1" as="geometry" />
        </mxCell>
        <mxCell id="1VUmnsQ3BvMP89mHqFCF-76" value="&lt;span style=&quot;font-size:14.0pt;mso-bidi-font-size:11.0pt;&amp;lt;br/&amp;gt;line-height:105%;font-family:&amp;quot;Times New Roman&amp;quot;,serif;mso-fareast-font-family:&amp;lt;br/&amp;gt;Calibri;mso-fareast-theme-font:minor-latin;mso-bidi-theme-font:minor-bidi;&amp;lt;br/&amp;gt;mso-ansi-language:EN-US;mso-fareast-language:EN-US;mso-bidi-language:AR-SA&quot;&gt;34. Cập&lt;br&gt;nhật bảng tổng hợp doanh thu&amp;nbsp;&lt;/span&gt;" style="ellipse;whiteSpace=wrap;html=1;aspect=fixed;rounded=0;" vertex="1" parent="1">
          <mxGeometry x="1290" y="3468" width="134" height="134" as="geometry" />
        </mxCell>
        <mxCell id="1VUmnsQ3BvMP89mHqFCF-77" style="edgeStyle=orthogonalEdgeStyle;rounded=0;orthogonalLoop=1;jettySize=auto;html=1;exitX=1;exitY=0.5;exitDx=0;exitDy=0;entryX=0;entryY=0.5;entryDx=0;entryDy=0;" edge="1" parent="1" source="1VUmnsQ3BvMP89mHqFCF-78" target="1VUmnsQ3BvMP89mHqFCF-80">
          <mxGeometry relative="1" as="geometry" />
        </mxCell>
        <mxCell id="1VUmnsQ3BvMP89mHqFCF-78" value="&lt;span style=&quot;font-size:14.0pt;mso-bidi-font-size:11.0pt;&amp;lt;br/&amp;gt;line-height:105%;font-family:&amp;quot;Times New Roman&amp;quot;,serif;mso-fareast-font-family:&amp;lt;br/&amp;gt;Calibri;mso-fareast-theme-font:minor-latin;mso-bidi-theme-font:minor-bidi;&amp;lt;br/&amp;gt;mso-ansi-language:EN-US;mso-fareast-language:EN-US;mso-bidi-language:AR-SA&quot;&gt;35. Ghi&lt;br&gt;nhận thông tin tháng cần báo cáo hợp đồng&lt;/span&gt;" style="ellipse;whiteSpace=wrap;html=1;aspect=fixed;rounded=0;" vertex="1" parent="1">
          <mxGeometry x="486" y="3904" width="134" height="134" as="geometry" />
        </mxCell>
        <mxCell id="1VUmnsQ3BvMP89mHqFCF-79" style="edgeStyle=orthogonalEdgeStyle;rounded=0;orthogonalLoop=1;jettySize=auto;html=1;exitX=1;exitY=0.5;exitDx=0;exitDy=0;entryX=0;entryY=0.5;entryDx=0;entryDy=0;" edge="1" parent="1" source="1VUmnsQ3BvMP89mHqFCF-80" target="1VUmnsQ3BvMP89mHqFCF-82">
          <mxGeometry relative="1" as="geometry" />
        </mxCell>
        <mxCell id="1VUmnsQ3BvMP89mHqFCF-80" value="&lt;span style=&quot;font-size:14.0pt;mso-bidi-font-size:11.0pt;&amp;lt;br/&amp;gt;line-height:105%;font-family:&amp;quot;Times New Roman&amp;quot;,serif;mso-fareast-font-family:&amp;lt;br/&amp;gt;Calibri;mso-fareast-theme-font:minor-latin;mso-bidi-theme-font:minor-bidi;&amp;lt;br/&amp;gt;mso-ansi-language:EN-US;mso-fareast-language:EN-US;mso-bidi-language:AR-SA&quot;&gt;36. Truy&lt;br&gt;xuất dữ liệu các loại hợp đồng theo tháng được yêu cầu&lt;/span&gt;" style="ellipse;whiteSpace=wrap;html=1;aspect=fixed;rounded=0;" vertex="1" parent="1">
          <mxGeometry x="820" y="3903" width="134" height="134" as="geometry" />
        </mxCell>
        <mxCell id="1VUmnsQ3BvMP89mHqFCF-81" style="edgeStyle=orthogonalEdgeStyle;rounded=0;orthogonalLoop=1;jettySize=auto;html=1;exitX=1;exitY=0.5;exitDx=0;exitDy=0;entryX=0;entryY=0.5;entryDx=0;entryDy=0;" edge="1" parent="1" source="1VUmnsQ3BvMP89mHqFCF-82" target="1VUmnsQ3BvMP89mHqFCF-84">
          <mxGeometry relative="1" as="geometry" />
        </mxCell>
        <mxCell id="1VUmnsQ3BvMP89mHqFCF-82" value="&lt;span style=&quot;font-size:14.0pt;mso-bidi-font-size:11.0pt;&amp;lt;br/&amp;gt;line-height:105%;font-family:&amp;quot;Times New Roman&amp;quot;,serif;mso-fareast-font-family:&amp;lt;br/&amp;gt;Calibri;mso-fareast-theme-font:minor-latin;mso-bidi-theme-font:minor-bidi;&amp;lt;br/&amp;gt;mso-ansi-language:EN-US;mso-fareast-language:EN-US;mso-bidi-language:AR-SA&quot;&gt;37. Phân&lt;br&gt;loại theo căn hộ, khách hàng&lt;/span&gt;" style="ellipse;whiteSpace=wrap;html=1;aspect=fixed;rounded=0;" vertex="1" parent="1">
          <mxGeometry x="1122" y="3901" width="134" height="134" as="geometry" />
        </mxCell>
        <mxCell id="1VUmnsQ3BvMP89mHqFCF-83" style="edgeStyle=orthogonalEdgeStyle;rounded=0;orthogonalLoop=1;jettySize=auto;html=1;exitX=1;exitY=0.5;exitDx=0;exitDy=0;entryX=0;entryY=0.5;entryDx=0;entryDy=0;" edge="1" parent="1" source="1VUmnsQ3BvMP89mHqFCF-84" target="1VUmnsQ3BvMP89mHqFCF-135">
          <mxGeometry relative="1" as="geometry" />
        </mxCell>
        <mxCell id="1VUmnsQ3BvMP89mHqFCF-84" value="&lt;span style=&quot;font-size:14.0pt;mso-bidi-font-size:11.0pt;&amp;lt;br/&amp;gt;line-height:105%;font-family:&amp;quot;Times New Roman&amp;quot;,serif;mso-fareast-font-family:&amp;lt;br/&amp;gt;Calibri;mso-fareast-theme-font:minor-latin;mso-bidi-theme-font:minor-bidi;&amp;lt;br/&amp;gt;mso-ansi-language:EN-US;mso-fareast-language:EN-US;mso-bidi-language:AR-SA&quot;&gt;38. Cập&lt;br&gt;nhật bảng tổng hợp hợp đồng&lt;/span&gt;" style="ellipse;whiteSpace=wrap;html=1;aspect=fixed;rounded=0;" vertex="1" parent="1">
          <mxGeometry x="1490" y="3902" width="134" height="134" as="geometry" />
        </mxCell>
        <mxCell id="1VUmnsQ3BvMP89mHqFCF-85" value="&lt;span style=&quot;font-size:14.0pt;mso-bidi-font-size:11.0pt;&amp;lt;br/&amp;gt;line-height:105%;font-family:&amp;quot;Times New Roman&amp;quot;,serif;mso-fareast-font-family:&amp;lt;br/&amp;gt;Calibri;mso-fareast-theme-font:minor-latin;mso-bidi-theme-font:minor-bidi;&amp;lt;br/&amp;gt;mso-ansi-language:EN-US;mso-fareast-language:EN-US;mso-bidi-language:AR-SA&quot;&gt;39. Mở&lt;br&gt;form danh sách căn hộ&lt;/span&gt;" style="ellipse;whiteSpace=wrap;html=1;aspect=fixed;fillColor=#dae8fc;strokeColor=#6c8ebf;rounded=0;" vertex="1" parent="1">
          <mxGeometry x="233" y="2476" width="134" height="134" as="geometry" />
        </mxCell>
        <mxCell id="1VUmnsQ3BvMP89mHqFCF-86" style="edgeStyle=orthogonalEdgeStyle;rounded=0;orthogonalLoop=1;jettySize=auto;html=1;exitX=1;exitY=0.5;exitDx=0;exitDy=0;entryX=0;entryY=0.5;entryDx=0;entryDy=0;" edge="1" parent="1" source="1VUmnsQ3BvMP89mHqFCF-87" target="1VUmnsQ3BvMP89mHqFCF-89">
          <mxGeometry relative="1" as="geometry" />
        </mxCell>
        <mxCell id="1VUmnsQ3BvMP89mHqFCF-87" value="&lt;span style=&quot;font-size:14.0pt;mso-bidi-font-size:11.0pt;&amp;lt;br/&amp;gt;line-height:105%;font-family:&amp;quot;Times New Roman&amp;quot;,serif;mso-fareast-font-family:&amp;lt;br/&amp;gt;Calibri;mso-fareast-theme-font:minor-latin;mso-bidi-theme-font:minor-bidi;&amp;lt;br/&amp;gt;mso-ansi-language:EN-US;mso-fareast-language:EN-US;mso-bidi-language:AR-SA&quot;&gt;40. Truy&lt;br&gt;xuất danh mục thiết bị của căn hộ&lt;/span&gt;" style="ellipse;whiteSpace=wrap;html=1;aspect=fixed;rounded=0;" vertex="1" parent="1">
          <mxGeometry x="964" y="2493" width="134" height="134" as="geometry" />
        </mxCell>
        <mxCell id="1VUmnsQ3BvMP89mHqFCF-88" style="edgeStyle=orthogonalEdgeStyle;rounded=0;orthogonalLoop=1;jettySize=auto;html=1;exitX=1;exitY=0.5;exitDx=0;exitDy=0;entryX=0;entryY=0.75;entryDx=0;entryDy=0;" edge="1" parent="1" source="1VUmnsQ3BvMP89mHqFCF-89" target="1VUmnsQ3BvMP89mHqFCF-150">
          <mxGeometry relative="1" as="geometry">
            <Array as="points">
              <mxPoint x="3121" y="2561" />
              <mxPoint x="3121" y="1292" />
              <mxPoint x="4213" y="1292" />
            </Array>
          </mxGeometry>
        </mxCell>
        <mxCell id="1VUmnsQ3BvMP89mHqFCF-89" value="&lt;span style=&quot;font-size:14.0pt;mso-bidi-font-size:11.0pt;&amp;lt;br/&amp;gt;line-height:105%;font-family:&amp;quot;Times New Roman&amp;quot;,serif;mso-fareast-font-family:&amp;lt;br/&amp;gt;Calibri;mso-fareast-theme-font:minor-latin;mso-bidi-theme-font:minor-bidi;&amp;lt;br/&amp;gt;mso-ansi-language:EN-US;mso-fareast-language:EN-US;mso-bidi-language:AR-SA&quot;&gt;41. Cập&lt;br&gt;nhật thông tin thiết bị và tình trạng&lt;/span&gt;" style="ellipse;whiteSpace=wrap;html=1;aspect=fixed;rounded=0;" vertex="1" parent="1">
          <mxGeometry x="1432" y="2494" width="134" height="134" as="geometry" />
        </mxCell>
        <mxCell id="1VUmnsQ3BvMP89mHqFCF-90" style="edgeStyle=orthogonalEdgeStyle;rounded=0;orthogonalLoop=1;jettySize=auto;html=1;exitX=1;exitY=0.5;exitDx=0;exitDy=0;entryX=0;entryY=0.5;entryDx=0;entryDy=0;" edge="1" parent="1" source="1VUmnsQ3BvMP89mHqFCF-91" target="1VUmnsQ3BvMP89mHqFCF-92">
          <mxGeometry relative="1" as="geometry" />
        </mxCell>
        <mxCell id="1VUmnsQ3BvMP89mHqFCF-91" value="&lt;span style=&quot;font-size:14.0pt;mso-bidi-font-size:11.0pt;&amp;lt;br/&amp;gt;line-height:105%;font-family:&amp;quot;Times New Roman&amp;quot;,serif;mso-fareast-font-family:&amp;lt;br/&amp;gt;Calibri;mso-fareast-theme-font:minor-latin;mso-bidi-theme-font:minor-bidi;&amp;lt;br/&amp;gt;mso-ansi-language:EN-US;mso-fareast-language:EN-US;mso-bidi-language:AR-SA&quot;&gt;42. Mở&lt;br&gt;form biên bản nghiệm thu&lt;/span&gt;" style="ellipse;whiteSpace=wrap;html=1;aspect=fixed;fillColor=#dae8fc;strokeColor=#6c8ebf;rounded=0;" vertex="1" parent="1">
          <mxGeometry x="230" y="2761" width="134" height="134" as="geometry" />
        </mxCell>
        <mxCell id="1VUmnsQ3BvMP89mHqFCF-92" value="&lt;span style=&quot;font-size:14.0pt;mso-bidi-font-size:11.0pt;&amp;lt;br/&amp;gt;line-height:105%;font-family:&amp;quot;Times New Roman&amp;quot;,serif;mso-fareast-font-family:&amp;lt;br/&amp;gt;Calibri;mso-fareast-theme-font:minor-latin;mso-bidi-theme-font:minor-bidi;&amp;lt;br/&amp;gt;mso-ansi-language:EN-US;mso-fareast-language:EN-US;mso-bidi-language:AR-SA&quot;&gt;43. Sinh&lt;br&gt;tự động số biên bản và ngày lập&lt;/span&gt;" style="ellipse;whiteSpace=wrap;html=1;aspect=fixed;rounded=0;" vertex="1" parent="1">
          <mxGeometry x="716" y="2761" width="134" height="134" as="geometry" />
        </mxCell>
        <mxCell id="1VUmnsQ3BvMP89mHqFCF-93" style="edgeStyle=orthogonalEdgeStyle;rounded=0;orthogonalLoop=1;jettySize=auto;html=1;exitX=1;exitY=0.5;exitDx=0;exitDy=0;entryX=0;entryY=1;entryDx=0;entryDy=0;" edge="1" parent="1" source="1VUmnsQ3BvMP89mHqFCF-94" target="1VUmnsQ3BvMP89mHqFCF-8">
          <mxGeometry relative="1" as="geometry">
            <mxPoint x="1860" y="381" as="targetPoint" />
            <Array as="points">
              <mxPoint x="1675" y="2842" />
              <mxPoint x="1675" y="1573" />
              <mxPoint x="1813" y="1573" />
            </Array>
          </mxGeometry>
        </mxCell>
        <mxCell id="1VUmnsQ3BvMP89mHqFCF-94" value="&lt;span style=&quot;font-size:14.0pt;mso-bidi-font-size:11.0pt;&amp;lt;br/&amp;gt;line-height:105%;font-family:&amp;quot;Times New Roman&amp;quot;,serif;mso-fareast-font-family:&amp;lt;br/&amp;gt;Calibri;mso-fareast-theme-font:minor-latin;mso-bidi-theme-font:minor-bidi;&amp;lt;br/&amp;gt;mso-ansi-language:EN-US;mso-fareast-language:EN-US;mso-bidi-language:AR-SA&quot;&gt;44. Cập&lt;br&gt;nhật tình trạng thiết bị&lt;/span&gt;" style="ellipse;whiteSpace=wrap;html=1;aspect=fixed;rounded=0;" vertex="1" parent="1">
          <mxGeometry x="1209" y="2775" width="134" height="134" as="geometry" />
        </mxCell>
        <mxCell id="1VUmnsQ3BvMP89mHqFCF-95" style="edgeStyle=orthogonalEdgeStyle;rounded=0;orthogonalLoop=1;jettySize=auto;html=1;exitX=1;exitY=0.5;exitDx=0;exitDy=0;entryX=0;entryY=0.5;entryDx=0;entryDy=0;" edge="1" parent="1" source="1VUmnsQ3BvMP89mHqFCF-96" target="1VUmnsQ3BvMP89mHqFCF-98">
          <mxGeometry relative="1" as="geometry" />
        </mxCell>
        <mxCell id="1VUmnsQ3BvMP89mHqFCF-96" value="&lt;span style=&quot;font-size: 14pt; line-height: 105%; font-family: &amp;quot;Times New Roman&amp;quot;, serif;&quot;&gt;&lt;font style=&quot;color: rgb(0, 0, 0);&quot;&gt;45. Cập nhật thông tin căn hộ&lt;/font&gt;&lt;/span&gt;" style="ellipse;whiteSpace=wrap;html=1;aspect=fixed;fillColor=#f8cecc;strokeColor=#b85450;rounded=0;" vertex="1" parent="1">
          <mxGeometry x="1779" y="2771" width="134" height="134" as="geometry" />
        </mxCell>
        <mxCell id="1VUmnsQ3BvMP89mHqFCF-97" style="edgeStyle=orthogonalEdgeStyle;rounded=0;orthogonalLoop=1;jettySize=auto;html=1;exitX=1;exitY=0.5;exitDx=0;exitDy=0;entryX=0;entryY=0.25;entryDx=0;entryDy=0;" edge="1" parent="1" source="1VUmnsQ3BvMP89mHqFCF-98" target="1VUmnsQ3BvMP89mHqFCF-161">
          <mxGeometry relative="1" as="geometry">
            <mxPoint x="3770.062924385071" y="2555.0001220703125" as="targetPoint" />
          </mxGeometry>
        </mxCell>
        <mxCell id="1VUmnsQ3BvMP89mHqFCF-98" value="&lt;span style=&quot;font-size:14.0pt;mso-bidi-font-size:11.0pt;&amp;lt;br/&amp;gt;line-height:105%;font-family:&amp;quot;Times New Roman&amp;quot;,serif;mso-fareast-font-family:&amp;lt;br/&amp;gt;Calibri;mso-fareast-theme-font:minor-latin;mso-bidi-theme-font:minor-bidi;&amp;lt;br/&amp;gt;mso-ansi-language:EN-US;mso-fareast-language:EN-US;mso-bidi-language:AR-SA&quot;&gt;46. Cập&lt;br&gt;nhật, tạo mới thông tin biên bản nghiệm thu&lt;/span&gt;" style="ellipse;whiteSpace=wrap;html=1;aspect=fixed;rounded=0;" vertex="1" parent="1">
          <mxGeometry x="2236" y="2770" width="134" height="134" as="geometry" />
        </mxCell>
        <mxCell id="1VUmnsQ3BvMP89mHqFCF-99" style="edgeStyle=orthogonalEdgeStyle;rounded=0;orthogonalLoop=1;jettySize=auto;html=1;exitX=1;exitY=0.5;exitDx=0;exitDy=0;entryX=0;entryY=0.5;entryDx=0;entryDy=0;" edge="1" parent="1" source="1VUmnsQ3BvMP89mHqFCF-100" target="1VUmnsQ3BvMP89mHqFCF-101">
          <mxGeometry relative="1" as="geometry" />
        </mxCell>
        <mxCell id="1VUmnsQ3BvMP89mHqFCF-100" value="&lt;span style=&quot;font-size:14.0pt;mso-bidi-font-size:11.0pt;&amp;lt;br/&amp;gt;line-height:105%;font-family:&amp;quot;Times New Roman&amp;quot;,serif;mso-fareast-font-family:&amp;lt;br/&amp;gt;Calibri;mso-fareast-theme-font:minor-latin;mso-bidi-theme-font:minor-bidi;&amp;lt;br/&amp;gt;mso-ansi-language:EN-US;mso-fareast-language:EN-US;mso-bidi-language:AR-SA&quot;&gt;47. Mở&lt;br&gt;form hóa đơn thanh toán&lt;/span&gt;" style="ellipse;whiteSpace=wrap;html=1;aspect=fixed;fillColor=#dae8fc;strokeColor=#6c8ebf;rounded=0;" vertex="1" parent="1">
          <mxGeometry x="239" y="3016" width="134" height="134" as="geometry" />
        </mxCell>
        <mxCell id="1VUmnsQ3BvMP89mHqFCF-101" value="&lt;span style=&quot;font-size:14.0pt;mso-bidi-font-size:11.0pt;&amp;lt;br/&amp;gt;line-height:105%;font-family:&amp;quot;Times New Roman&amp;quot;,serif;mso-fareast-font-family:&amp;lt;br/&amp;gt;Calibri;mso-fareast-theme-font:minor-latin;mso-bidi-theme-font:minor-bidi;&amp;lt;br/&amp;gt;mso-ansi-language:EN-US;mso-fareast-language:EN-US;mso-bidi-language:AR-SA&quot;&gt;48. Sinh&lt;br&gt;tự động số hóa đơn và ngày lập&lt;/span&gt;" style="ellipse;whiteSpace=wrap;html=1;aspect=fixed;rounded=0;" vertex="1" parent="1">
          <mxGeometry x="703" y="3017" width="134" height="134" as="geometry" />
        </mxCell>
        <mxCell id="1VUmnsQ3BvMP89mHqFCF-102" style="edgeStyle=orthogonalEdgeStyle;rounded=0;orthogonalLoop=1;jettySize=auto;html=1;exitX=1;exitY=0.5;exitDx=0;exitDy=0;entryX=1;entryY=1;entryDx=0;entryDy=0;" edge="1" parent="1" source="1VUmnsQ3BvMP89mHqFCF-103" target="1VUmnsQ3BvMP89mHqFCF-8">
          <mxGeometry relative="1" as="geometry" />
        </mxCell>
        <mxCell id="1VUmnsQ3BvMP89mHqFCF-103" value="&lt;span style=&quot;font-size:14.0pt;mso-bidi-font-size:11.0pt;&amp;lt;br/&amp;gt;line-height:105%;font-family:&amp;quot;Times New Roman&amp;quot;,serif;mso-fareast-font-family:&amp;lt;br/&amp;gt;Calibri;mso-fareast-theme-font:minor-latin;mso-bidi-theme-font:minor-bidi;&amp;lt;br/&amp;gt;mso-ansi-language:EN-US;mso-fareast-language:EN-US;mso-bidi-language:AR-SA&quot;&gt;49. Tính&lt;br&gt;tiền thuê, dịch vụ&lt;/span&gt;" style="ellipse;whiteSpace=wrap;html=1;aspect=fixed;rounded=0;" vertex="1" parent="1">
          <mxGeometry x="2051" y="3006" width="134" height="134" as="geometry" />
        </mxCell>
        <mxCell id="1VUmnsQ3BvMP89mHqFCF-104" style="edgeStyle=orthogonalEdgeStyle;rounded=0;orthogonalLoop=1;jettySize=auto;html=1;exitX=1;exitY=0.5;exitDx=0;exitDy=0;entryX=0;entryY=0.75;entryDx=0;entryDy=0;" edge="1" parent="1" source="1VUmnsQ3BvMP89mHqFCF-105" target="1VUmnsQ3BvMP89mHqFCF-158">
          <mxGeometry relative="1" as="geometry" />
        </mxCell>
        <mxCell id="1VUmnsQ3BvMP89mHqFCF-105" value="&lt;span style=&quot;font-size:14.0pt;mso-bidi-font-size:11.0pt;&amp;lt;br/&amp;gt;line-height:105%;font-family:&amp;quot;Times New Roman&amp;quot;,serif;mso-fareast-font-family:&amp;lt;br/&amp;gt;Calibri;mso-fareast-theme-font:minor-latin;mso-bidi-theme-font:minor-bidi;&amp;lt;br/&amp;gt;mso-ansi-language:EN-US;mso-fareast-language:EN-US;mso-bidi-language:AR-SA&quot;&gt;50. Lưu&lt;br&gt;hóa đơn thanh toán&lt;/span&gt;" style="ellipse;whiteSpace=wrap;html=1;aspect=fixed;rounded=0;" vertex="1" parent="1">
          <mxGeometry x="3795" y="3005" width="134" height="134" as="geometry" />
        </mxCell>
        <mxCell id="1VUmnsQ3BvMP89mHqFCF-106" style="edgeStyle=orthogonalEdgeStyle;rounded=0;orthogonalLoop=1;jettySize=auto;html=1;exitX=1;exitY=0.5;exitDx=0;exitDy=0;entryX=0;entryY=0.5;entryDx=0;entryDy=0;" edge="1" parent="1" source="1VUmnsQ3BvMP89mHqFCF-107" target="1VUmnsQ3BvMP89mHqFCF-109">
          <mxGeometry relative="1" as="geometry" />
        </mxCell>
        <mxCell id="1VUmnsQ3BvMP89mHqFCF-107" value="&lt;span style=&quot;font-size:14.0pt;mso-bidi-font-size:11.0pt;&amp;lt;br/&amp;gt;line-height:105%;font-family:&amp;quot;Times New Roman&amp;quot;,serif;mso-fareast-font-family:&amp;lt;br/&amp;gt;Calibri;mso-fareast-theme-font:minor-latin;mso-bidi-theme-font:minor-bidi;&amp;lt;br/&amp;gt;mso-ansi-language:EN-US;mso-fareast-language:EN-US;mso-bidi-language:AR-SA&quot;&gt;51. Kiểm&lt;br&gt;tra phương thức thanh toán&lt;/span&gt;" style="ellipse;whiteSpace=wrap;html=1;aspect=fixed;rounded=0;" vertex="1" parent="1">
          <mxGeometry x="2831" y="3004" width="134" height="134" as="geometry" />
        </mxCell>
        <mxCell id="1VUmnsQ3BvMP89mHqFCF-108" style="edgeStyle=orthogonalEdgeStyle;rounded=0;orthogonalLoop=1;jettySize=auto;html=1;exitX=1;exitY=0.5;exitDx=0;exitDy=0;entryX=0;entryY=0.5;entryDx=0;entryDy=0;" edge="1" parent="1" source="1VUmnsQ3BvMP89mHqFCF-109" target="1VUmnsQ3BvMP89mHqFCF-111">
          <mxGeometry relative="1" as="geometry" />
        </mxCell>
        <mxCell id="1VUmnsQ3BvMP89mHqFCF-109" value="&lt;span style=&quot;font-size:14.0pt;mso-bidi-font-size:11.0pt;&amp;lt;br/&amp;gt;line-height:105%;font-family:&amp;quot;Times New Roman&amp;quot;,serif;mso-fareast-font-family:&amp;lt;br/&amp;gt;Calibri;mso-fareast-theme-font:minor-latin;mso-bidi-theme-font:minor-bidi;&amp;lt;br/&amp;gt;mso-ansi-language:EN-US;mso-fareast-language:EN-US;mso-bidi-language:AR-SA&quot;&gt;52. Xác&lt;br&gt;nhận trạng thái giao dịch&lt;/span&gt;" style="ellipse;whiteSpace=wrap;html=1;aspect=fixed;rounded=0;" vertex="1" parent="1">
          <mxGeometry x="3241" y="3004" width="134" height="134" as="geometry" />
        </mxCell>
        <mxCell id="1VUmnsQ3BvMP89mHqFCF-110" style="edgeStyle=orthogonalEdgeStyle;rounded=0;orthogonalLoop=1;jettySize=auto;html=1;exitX=1;exitY=0.5;exitDx=0;exitDy=0;entryX=0;entryY=0.5;entryDx=0;entryDy=0;" edge="1" parent="1" source="1VUmnsQ3BvMP89mHqFCF-111" target="1VUmnsQ3BvMP89mHqFCF-105">
          <mxGeometry relative="1" as="geometry" />
        </mxCell>
        <mxCell id="1VUmnsQ3BvMP89mHqFCF-111" value="&lt;span style=&quot;font-size:14.0pt;mso-bidi-font-size:11.0pt;&amp;lt;br/&amp;gt;line-height:105%;font-family:&amp;quot;Times New Roman&amp;quot;,serif;mso-fareast-font-family:&amp;lt;br/&amp;gt;Calibri;mso-fareast-theme-font:minor-latin;mso-bidi-theme-font:minor-bidi;&amp;lt;br/&amp;gt;mso-ansi-language:EN-US;mso-fareast-language:EN-US;mso-bidi-language:AR-SA&quot;&gt;53. Cập&lt;br&gt;nhật trạng thái giao dịch&lt;/span&gt;" style="ellipse;whiteSpace=wrap;html=1;aspect=fixed;rounded=0;" vertex="1" parent="1">
          <mxGeometry x="3507" y="3005" width="134" height="134" as="geometry" />
        </mxCell>
        <mxCell id="1VUmnsQ3BvMP89mHqFCF-112" style="edgeStyle=orthogonalEdgeStyle;rounded=0;orthogonalLoop=1;jettySize=auto;html=1;exitX=1;exitY=0.5;exitDx=0;exitDy=0;entryX=0;entryY=0.5;entryDx=0;entryDy=0;" edge="1" parent="1" source="1VUmnsQ3BvMP89mHqFCF-113" target="1VUmnsQ3BvMP89mHqFCF-115">
          <mxGeometry relative="1" as="geometry" />
        </mxCell>
        <mxCell id="1VUmnsQ3BvMP89mHqFCF-113" value="&lt;span style=&quot;font-size:14.0pt;mso-bidi-font-size:11.0pt;&amp;lt;br/&amp;gt;line-height:105%;font-family:&amp;quot;Times New Roman&amp;quot;,serif;mso-fareast-font-family:&amp;lt;br/&amp;gt;Calibri;mso-fareast-theme-font:minor-latin;mso-bidi-theme-font:minor-bidi;&amp;lt;br/&amp;gt;mso-ansi-language:EN-US;mso-fareast-language:EN-US;mso-bidi-language:AR-SA&quot;&gt;54. Đối&lt;br&gt;chiếu hóa đơn, hợp đồng và thanh toán&lt;/span&gt;" style="ellipse;whiteSpace=wrap;html=1;aspect=fixed;rounded=0;" vertex="1" parent="1">
          <mxGeometry x="529" y="513" width="134" height="134" as="geometry" />
        </mxCell>
        <mxCell id="1VUmnsQ3BvMP89mHqFCF-114" style="edgeStyle=orthogonalEdgeStyle;rounded=0;orthogonalLoop=1;jettySize=auto;html=1;exitX=1;exitY=0.5;exitDx=0;exitDy=0;entryX=0.5;entryY=0;entryDx=0;entryDy=0;" edge="1" parent="1" source="1VUmnsQ3BvMP89mHqFCF-115" target="1VUmnsQ3BvMP89mHqFCF-42">
          <mxGeometry relative="1" as="geometry" />
        </mxCell>
        <mxCell id="1VUmnsQ3BvMP89mHqFCF-115" value="&lt;span style=&quot;font-size:14.0pt;mso-bidi-font-size:11.0pt;&amp;lt;br/&amp;gt;line-height:105%;font-family:&amp;quot;Times New Roman&amp;quot;,serif;mso-fareast-font-family:&amp;lt;br/&amp;gt;Calibri;mso-fareast-theme-font:minor-latin;mso-bidi-theme-font:minor-bidi;&amp;lt;br/&amp;gt;mso-ansi-language:EN-US;mso-fareast-language:EN-US;mso-bidi-language:AR-SA&quot;&gt;55. Cập&lt;br&gt;nhật công nợ hiện tại&lt;/span&gt;" style="ellipse;whiteSpace=wrap;html=1;aspect=fixed;rounded=0;" vertex="1" parent="1">
          <mxGeometry x="923" y="512" width="134" height="134" as="geometry" />
        </mxCell>
        <mxCell id="1VUmnsQ3BvMP89mHqFCF-116" style="edgeStyle=orthogonalEdgeStyle;rounded=0;orthogonalLoop=1;jettySize=auto;html=1;exitX=1;exitY=0.5;exitDx=0;exitDy=0;entryX=0;entryY=0.5;entryDx=0;entryDy=0;" edge="1" parent="1" source="1VUmnsQ3BvMP89mHqFCF-117" target="1VUmnsQ3BvMP89mHqFCF-119">
          <mxGeometry relative="1" as="geometry" />
        </mxCell>
        <mxCell id="1VUmnsQ3BvMP89mHqFCF-117" value="&lt;span style=&quot;font-size:14.0pt;mso-bidi-font-size:11.0pt;&amp;lt;br/&amp;gt;line-height:105%;font-family:&amp;quot;Times New Roman&amp;quot;,serif;mso-fareast-font-family:&amp;lt;br/&amp;gt;Calibri;mso-fareast-theme-font:minor-latin;mso-bidi-theme-font:minor-bidi;&amp;lt;br/&amp;gt;mso-ansi-language:EN-US;mso-fareast-language:EN-US;mso-bidi-language:AR-SA&quot;&gt;56. Mở&lt;br&gt;form hóa đơn dịch vụ&lt;/span&gt;" style="ellipse;whiteSpace=wrap;html=1;aspect=fixed;fillColor=#dae8fc;strokeColor=#6c8ebf;rounded=0;" vertex="1" parent="1">
          <mxGeometry x="239" y="3272" width="134" height="134" as="geometry" />
        </mxCell>
        <mxCell id="1VUmnsQ3BvMP89mHqFCF-118" style="edgeStyle=orthogonalEdgeStyle;rounded=0;orthogonalLoop=1;jettySize=auto;html=1;exitX=1;exitY=0.5;exitDx=0;exitDy=0;entryX=0.682;entryY=0.979;entryDx=0;entryDy=0;entryPerimeter=0;" edge="1" parent="1" source="1VUmnsQ3BvMP89mHqFCF-119" target="1VUmnsQ3BvMP89mHqFCF-36">
          <mxGeometry relative="1" as="geometry">
            <mxPoint x="1334.0619478225708" y="1170.9998779296875" as="targetPoint" />
            <Array as="points">
              <mxPoint x="1168" y="3339" />
              <mxPoint x="1168" y="1548" />
              <mxPoint x="1234" y="1548" />
            </Array>
          </mxGeometry>
        </mxCell>
        <mxCell id="1VUmnsQ3BvMP89mHqFCF-119" value="&lt;span style=&quot;font-size:14.0pt;mso-bidi-font-size:11.0pt;&amp;lt;br/&amp;gt;line-height:105%;font-family:&amp;quot;Times New Roman&amp;quot;,serif;mso-fareast-font-family:&amp;lt;br/&amp;gt;Calibri;mso-fareast-theme-font:minor-latin;mso-bidi-theme-font:minor-bidi;&amp;lt;br/&amp;gt;mso-ansi-language:EN-US;mso-fareast-language:EN-US;mso-bidi-language:AR-SA&quot;&gt;57. Sinh&lt;br&gt;tự động số hóa đơn và ngày lập&lt;/span&gt;" style="ellipse;whiteSpace=wrap;html=1;aspect=fixed;rounded=0;" vertex="1" parent="1">
          <mxGeometry x="878" y="3272" width="134" height="134" as="geometry" />
        </mxCell>
        <mxCell id="1VUmnsQ3BvMP89mHqFCF-120" value="&lt;span style=&quot;font-size:14.0pt;mso-bidi-font-size:11.0pt;&amp;lt;br/&amp;gt;line-height:105%;font-family:&amp;quot;Times New Roman&amp;quot;,serif;mso-fareast-font-family:&amp;lt;br/&amp;gt;Calibri;mso-fareast-theme-font:minor-latin;mso-bidi-theme-font:minor-bidi;&amp;lt;br/&amp;gt;mso-ansi-language:EN-US;mso-fareast-language:EN-US;mso-bidi-language:AR-SA&quot;&gt;58. Tính&lt;br&gt;tiền dịch vụ điện, nước&lt;/span&gt;" style="ellipse;whiteSpace=wrap;html=1;aspect=fixed;rounded=0;" vertex="1" parent="1">
          <mxGeometry x="1301" y="3298" width="134" height="134" as="geometry" />
        </mxCell>
        <mxCell id="1VUmnsQ3BvMP89mHqFCF-121" style="edgeStyle=orthogonalEdgeStyle;rounded=0;orthogonalLoop=1;jettySize=auto;html=1;exitX=1;exitY=0.5;exitDx=0;exitDy=0;entryX=0;entryY=0.75;entryDx=0;entryDy=0;" edge="1" parent="1" source="1VUmnsQ3BvMP89mHqFCF-122" target="1VUmnsQ3BvMP89mHqFCF-163">
          <mxGeometry relative="1" as="geometry" />
        </mxCell>
        <mxCell id="1VUmnsQ3BvMP89mHqFCF-122" value="&lt;span style=&quot;font-size:14.0pt;mso-bidi-font-size:11.0pt;&amp;lt;br/&amp;gt;line-height:105%;font-family:&amp;quot;Times New Roman&amp;quot;,serif;mso-fareast-font-family:&amp;lt;br/&amp;gt;Calibri;mso-fareast-theme-font:minor-latin;mso-bidi-theme-font:minor-bidi;&amp;lt;br/&amp;gt;mso-ansi-language:EN-US;mso-fareast-language:EN-US;mso-bidi-language:AR-SA&quot;&gt;59. Lưu&lt;br&gt;hóa đơn dịch vụ&lt;/span&gt;" style="ellipse;whiteSpace=wrap;html=1;aspect=fixed;rounded=0;" vertex="1" parent="1">
          <mxGeometry x="1935" y="3286" width="134" height="134" as="geometry" />
        </mxCell>
        <mxCell id="1VUmnsQ3BvMP89mHqFCF-123" style="edgeStyle=orthogonalEdgeStyle;rounded=0;orthogonalLoop=1;jettySize=auto;html=1;exitX=1;exitY=0.5;exitDx=0;exitDy=0;entryX=0;entryY=0.5;entryDx=0;entryDy=0;" edge="1" parent="1" source="1VUmnsQ3BvMP89mHqFCF-124" target="1VUmnsQ3BvMP89mHqFCF-126">
          <mxGeometry relative="1" as="geometry" />
        </mxCell>
        <mxCell id="1VUmnsQ3BvMP89mHqFCF-124" value="&lt;span style=&quot;font-size:14.0pt;mso-bidi-font-size:11.0pt;&amp;lt;br/&amp;gt;line-height:105%;font-family:&amp;quot;Times New Roman&amp;quot;,serif;mso-fareast-font-family:&amp;lt;br/&amp;gt;Calibri;mso-fareast-theme-font:minor-latin;mso-bidi-theme-font:minor-bidi;&amp;lt;br/&amp;gt;mso-ansi-language:EN-US;mso-fareast-language:EN-US;mso-bidi-language:AR-SA&quot;&gt;60. Truy&lt;br&gt;xuất dữ liệu doanh thu từ các hóa đơn&lt;/span&gt;" style="ellipse;whiteSpace=wrap;html=1;aspect=fixed;rounded=0;" vertex="1" parent="1">
          <mxGeometry x="1784" y="3469" width="134" height="134" as="geometry" />
        </mxCell>
        <mxCell id="1VUmnsQ3BvMP89mHqFCF-125" style="edgeStyle=orthogonalEdgeStyle;rounded=0;orthogonalLoop=1;jettySize=auto;html=1;exitX=1;exitY=0.5;exitDx=0;exitDy=0;entryX=0;entryY=0.5;entryDx=0;entryDy=0;" edge="1" parent="1" source="1VUmnsQ3BvMP89mHqFCF-126" target="1VUmnsQ3BvMP89mHqFCF-128">
          <mxGeometry relative="1" as="geometry" />
        </mxCell>
        <mxCell id="1VUmnsQ3BvMP89mHqFCF-126" value="&lt;span style=&quot;font-size:14.0pt;mso-bidi-font-size:11.0pt;&amp;lt;br/&amp;gt;line-height:105%;font-family:&amp;quot;Times New Roman&amp;quot;,serif;mso-fareast-font-family:&amp;lt;br/&amp;gt;Calibri;mso-fareast-theme-font:minor-latin;mso-bidi-theme-font:minor-bidi;&amp;lt;br/&amp;gt;mso-ansi-language:EN-US;mso-fareast-language:EN-US;mso-bidi-language:AR-SA&quot;&gt;61. So&lt;br&gt;sánh số liệu đã tổng hợp&lt;/span&gt;" style="ellipse;whiteSpace=wrap;html=1;aspect=fixed;rounded=0;" vertex="1" parent="1">
          <mxGeometry x="2189" y="3465" width="134" height="134" as="geometry" />
        </mxCell>
        <mxCell id="1VUmnsQ3BvMP89mHqFCF-127" style="edgeStyle=orthogonalEdgeStyle;rounded=0;orthogonalLoop=1;jettySize=auto;html=1;exitX=1;exitY=0.5;exitDx=0;exitDy=0;entryX=0.5;entryY=0;entryDx=0;entryDy=0;" edge="1" parent="1" source="1VUmnsQ3BvMP89mHqFCF-128" target="1VUmnsQ3BvMP89mHqFCF-132">
          <mxGeometry relative="1" as="geometry" />
        </mxCell>
        <mxCell id="1VUmnsQ3BvMP89mHqFCF-128" value="&lt;span style=&quot;font-size:14.0pt;mso-bidi-font-size:11.0pt;&amp;lt;br/&amp;gt;line-height:105%;font-family:&amp;quot;Times New Roman&amp;quot;,serif;mso-fareast-font-family:&amp;lt;br/&amp;gt;Calibri;mso-fareast-theme-font:minor-latin;mso-bidi-theme-font:minor-bidi;&amp;lt;br/&amp;gt;mso-ansi-language:EN-US;mso-fareast-language:EN-US;mso-bidi-language:AR-SA&quot;&gt;62. Cập&lt;br&gt;nhật kết quả đối chiếu&lt;/span&gt;" style="ellipse;whiteSpace=wrap;html=1;aspect=fixed;rounded=0;" vertex="1" parent="1">
          <mxGeometry x="2582" y="3465" width="134" height="134" as="geometry" />
        </mxCell>
        <mxCell id="1VUmnsQ3BvMP89mHqFCF-129" style="edgeStyle=orthogonalEdgeStyle;rounded=0;orthogonalLoop=1;jettySize=auto;html=1;exitX=1;exitY=0.5;exitDx=0;exitDy=0;entryX=0;entryY=0.5;entryDx=0;entryDy=0;" edge="1" parent="1" source="1VUmnsQ3BvMP89mHqFCF-130" target="1VUmnsQ3BvMP89mHqFCF-132">
          <mxGeometry relative="1" as="geometry" />
        </mxCell>
        <mxCell id="1VUmnsQ3BvMP89mHqFCF-130" value="&lt;span style=&quot;font-size:14.0pt;mso-bidi-font-size:11.0pt;&amp;lt;br/&amp;gt;line-height:105%;font-family:&amp;quot;Times New Roman&amp;quot;,serif;mso-fareast-font-family:&amp;lt;br/&amp;gt;Calibri;mso-fareast-theme-font:minor-latin;mso-bidi-theme-font:minor-bidi;&amp;lt;br/&amp;gt;mso-ansi-language:EN-US;mso-fareast-language:EN-US;mso-bidi-language:AR-SA&quot;&gt;63. Mở&lt;br&gt;form báo cáo doanh thu&lt;/span&gt;" style="ellipse;whiteSpace=wrap;html=1;aspect=fixed;fillColor=#dae8fc;strokeColor=#6c8ebf;rounded=0;" vertex="1" parent="1">
          <mxGeometry x="243" y="3714" width="134" height="134" as="geometry" />
        </mxCell>
        <mxCell id="1VUmnsQ3BvMP89mHqFCF-131" style="edgeStyle=orthogonalEdgeStyle;rounded=0;orthogonalLoop=1;jettySize=auto;html=1;exitX=1;exitY=0.5;exitDx=0;exitDy=0;entryX=0;entryY=0.5;entryDx=0;entryDy=0;" edge="1" parent="1" source="1VUmnsQ3BvMP89mHqFCF-132" target="1VUmnsQ3BvMP89mHqFCF-133">
          <mxGeometry relative="1" as="geometry" />
        </mxCell>
        <mxCell id="1VUmnsQ3BvMP89mHqFCF-132" value="&lt;span style=&quot;font-size:14.0pt;mso-bidi-font-size:11.0pt;&amp;lt;br/&amp;gt;line-height:105%;font-family:&amp;quot;Times New Roman&amp;quot;,serif;mso-fareast-font-family:&amp;lt;br/&amp;gt;Calibri;mso-fareast-theme-font:minor-latin;mso-bidi-theme-font:minor-bidi;&amp;lt;br/&amp;gt;mso-ansi-language:EN-US;mso-fareast-language:EN-US;mso-bidi-language:AR-SA&quot;&gt;64. Tổng&lt;br&gt;hợp dữ liệu doanh thu theo tháng&lt;/span&gt;" style="ellipse;whiteSpace=wrap;html=1;aspect=fixed;rounded=0;" vertex="1" parent="1">
          <mxGeometry x="697" y="3712" width="134" height="134" as="geometry" />
        </mxCell>
        <mxCell id="1VUmnsQ3BvMP89mHqFCF-133" value="&lt;span style=&quot;font-size:14.0pt;mso-bidi-font-size:11.0pt;&amp;lt;br/&amp;gt;line-height:105%;font-family:&amp;quot;Times New Roman&amp;quot;,serif;mso-fareast-font-family:&amp;lt;br/&amp;gt;Calibri;mso-fareast-theme-font:minor-latin;mso-bidi-theme-font:minor-bidi;&amp;lt;br/&amp;gt;mso-ansi-language:EN-US;mso-fareast-language:EN-US;mso-bidi-language:AR-SA&quot;&gt;65. Cập&lt;br&gt;nhật, tạo mới báo cáo doanh thu&lt;/span&gt;" style="ellipse;whiteSpace=wrap;html=1;aspect=fixed;rounded=0;" vertex="1" parent="1">
          <mxGeometry x="1241" y="3711" width="134" height="134" as="geometry" />
        </mxCell>
        <mxCell id="1VUmnsQ3BvMP89mHqFCF-134" style="edgeStyle=orthogonalEdgeStyle;rounded=0;orthogonalLoop=1;jettySize=auto;html=1;exitX=1;exitY=0.5;exitDx=0;exitDy=0;entryX=0;entryY=0.5;entryDx=0;entryDy=0;" edge="1" parent="1" source="1VUmnsQ3BvMP89mHqFCF-135" target="1VUmnsQ3BvMP89mHqFCF-137">
          <mxGeometry relative="1" as="geometry" />
        </mxCell>
        <mxCell id="1VUmnsQ3BvMP89mHqFCF-135" value="&lt;span style=&quot;font-size:14.0pt;mso-bidi-font-size:11.0pt;&amp;lt;br/&amp;gt;line-height:105%;font-family:&amp;quot;Times New Roman&amp;quot;,serif;mso-fareast-font-family:&amp;lt;br/&amp;gt;Calibri;mso-fareast-theme-font:minor-latin;mso-bidi-theme-font:minor-bidi;&amp;lt;br/&amp;gt;mso-ansi-language:EN-US;mso-fareast-language:EN-US;mso-bidi-language:AR-SA&quot;&gt;66. Truy&lt;br&gt;xuất dữ liệu từ các hợp đồng&lt;/span&gt;" style="ellipse;whiteSpace=wrap;html=1;aspect=fixed;rounded=0;" vertex="1" parent="1">
          <mxGeometry x="1856" y="3903" width="134" height="134" as="geometry" />
        </mxCell>
        <mxCell id="1VUmnsQ3BvMP89mHqFCF-136" style="edgeStyle=orthogonalEdgeStyle;rounded=0;orthogonalLoop=1;jettySize=auto;html=1;exitX=1;exitY=0.5;exitDx=0;exitDy=0;entryX=0;entryY=0.5;entryDx=0;entryDy=0;" edge="1" parent="1" source="1VUmnsQ3BvMP89mHqFCF-137" target="1VUmnsQ3BvMP89mHqFCF-139">
          <mxGeometry relative="1" as="geometry" />
        </mxCell>
        <mxCell id="1VUmnsQ3BvMP89mHqFCF-137" value="&lt;span style=&quot;font-size:14.0pt;mso-bidi-font-size:11.0pt;&amp;lt;br/&amp;gt;line-height:105%;font-family:&amp;quot;Times New Roman&amp;quot;,serif;mso-fareast-font-family:&amp;lt;br/&amp;gt;Calibri;mso-fareast-theme-font:minor-latin;mso-bidi-theme-font:minor-bidi;&amp;lt;br/&amp;gt;mso-ansi-language:EN-US;mso-fareast-language:EN-US;mso-bidi-language:AR-SA&quot;&gt;67. So&lt;br&gt;sánh số liệu đã tổng hợp&lt;/span&gt;" style="ellipse;whiteSpace=wrap;html=1;aspect=fixed;rounded=0;" vertex="1" parent="1">
          <mxGeometry x="2250" y="3904" width="134" height="134" as="geometry" />
        </mxCell>
        <mxCell id="1VUmnsQ3BvMP89mHqFCF-138" style="edgeStyle=orthogonalEdgeStyle;rounded=0;orthogonalLoop=1;jettySize=auto;html=1;exitX=1;exitY=0.5;exitDx=0;exitDy=0;entryX=0.5;entryY=0;entryDx=0;entryDy=0;" edge="1" parent="1" source="1VUmnsQ3BvMP89mHqFCF-139" target="1VUmnsQ3BvMP89mHqFCF-143">
          <mxGeometry relative="1" as="geometry" />
        </mxCell>
        <mxCell id="1VUmnsQ3BvMP89mHqFCF-139" value="&lt;span style=&quot;font-size:14.0pt;mso-bidi-font-size:11.0pt;&amp;lt;br/&amp;gt;line-height:105%;font-family:&amp;quot;Times New Roman&amp;quot;,serif;mso-fareast-font-family:&amp;lt;br/&amp;gt;Calibri;mso-fareast-theme-font:minor-latin;mso-bidi-theme-font:minor-bidi;&amp;lt;br/&amp;gt;mso-ansi-language:EN-US;mso-fareast-language:EN-US;mso-bidi-language:AR-SA&quot;&gt;68. Cập&lt;br&gt;nhật kết quả đối chiếu&lt;/span&gt;" style="ellipse;whiteSpace=wrap;html=1;aspect=fixed;rounded=0;" vertex="1" parent="1">
          <mxGeometry x="2647" y="3903" width="134" height="134" as="geometry" />
        </mxCell>
        <mxCell id="1VUmnsQ3BvMP89mHqFCF-140" style="edgeStyle=orthogonalEdgeStyle;rounded=0;orthogonalLoop=1;jettySize=auto;html=1;exitX=1;exitY=0.5;exitDx=0;exitDy=0;entryX=0;entryY=0.5;entryDx=0;entryDy=0;" edge="1" parent="1" source="1VUmnsQ3BvMP89mHqFCF-141" target="1VUmnsQ3BvMP89mHqFCF-143">
          <mxGeometry relative="1" as="geometry" />
        </mxCell>
        <mxCell id="1VUmnsQ3BvMP89mHqFCF-141" value="&lt;span style=&quot;font-size:14.0pt;mso-bidi-font-size:11.0pt;&amp;lt;br/&amp;gt;line-height:105%;font-family:&amp;quot;Times New Roman&amp;quot;,serif;mso-fareast-font-family:&amp;lt;br/&amp;gt;Calibri;mso-fareast-theme-font:minor-latin;mso-bidi-theme-font:minor-bidi;&amp;lt;br/&amp;gt;mso-ansi-language:EN-US;mso-fareast-language:EN-US;mso-bidi-language:AR-SA&quot;&gt;69. Mở&lt;br&gt;form báo cáo hợp đồng&lt;/span&gt;" style="ellipse;whiteSpace=wrap;html=1;aspect=fixed;fillColor=#dae8fc;strokeColor=#6c8ebf;rounded=0;" vertex="1" parent="1">
          <mxGeometry x="235" y="4125" width="134" height="134" as="geometry" />
        </mxCell>
        <mxCell id="1VUmnsQ3BvMP89mHqFCF-142" style="edgeStyle=orthogonalEdgeStyle;rounded=0;orthogonalLoop=1;jettySize=auto;html=1;exitX=1;exitY=0.5;exitDx=0;exitDy=0;entryX=0;entryY=0.5;entryDx=0;entryDy=0;" edge="1" parent="1" source="1VUmnsQ3BvMP89mHqFCF-143" target="1VUmnsQ3BvMP89mHqFCF-144">
          <mxGeometry relative="1" as="geometry" />
        </mxCell>
        <mxCell id="1VUmnsQ3BvMP89mHqFCF-143" value="&lt;span style=&quot;font-size:14.0pt;mso-bidi-font-size:11.0pt;&amp;lt;br/&amp;gt;line-height:105%;font-family:&amp;quot;Times New Roman&amp;quot;,serif;mso-fareast-font-family:&amp;lt;br/&amp;gt;Calibri;mso-fareast-theme-font:minor-latin;mso-bidi-theme-font:minor-bidi;&amp;lt;br/&amp;gt;mso-ansi-language:EN-US;mso-fareast-language:EN-US;mso-bidi-language:AR-SA&quot;&gt;70. Tổng&lt;br&gt;hợp dữ liệu hợp đồng theo tháng&lt;/span&gt;" style="ellipse;whiteSpace=wrap;html=1;aspect=fixed;rounded=0;" vertex="1" parent="1">
          <mxGeometry x="701" y="4125" width="134" height="134" as="geometry" />
        </mxCell>
        <mxCell id="1VUmnsQ3BvMP89mHqFCF-144" value="&lt;span style=&quot;font-size:14.0pt;mso-bidi-font-size:11.0pt;&amp;lt;br/&amp;gt;line-height:105%;font-family:&amp;quot;Times New Roman&amp;quot;,serif;mso-fareast-font-family:&amp;lt;br/&amp;gt;Calibri;mso-fareast-theme-font:minor-latin;mso-bidi-theme-font:minor-bidi;&amp;lt;br/&amp;gt;mso-ansi-language:EN-US;mso-fareast-language:EN-US;mso-bidi-language:AR-SA&quot;&gt;71. Cập&lt;br&gt;nhật, tạo mới báo cáo hợp đồng&lt;/span&gt;" style="ellipse;whiteSpace=wrap;html=1;aspect=fixed;rounded=0;" vertex="1" parent="1">
          <mxGeometry x="1233" y="4125" width="134" height="134" as="geometry" />
        </mxCell>
        <mxCell id="1VUmnsQ3BvMP89mHqFCF-145" style="edgeStyle=orthogonalEdgeStyle;rounded=0;orthogonalLoop=1;jettySize=auto;html=1;exitX=0;exitY=0.5;exitDx=0;exitDy=0;entryX=0.5;entryY=0;entryDx=0;entryDy=0;" edge="1" parent="1" source="1VUmnsQ3BvMP89mHqFCF-150" target="1VUmnsQ3BvMP89mHqFCF-25">
          <mxGeometry relative="1" as="geometry">
            <Array as="points">
              <mxPoint x="3525" y="1267" />
              <mxPoint x="3525" y="188" />
              <mxPoint x="2765" y="188" />
            </Array>
          </mxGeometry>
        </mxCell>
        <mxCell id="1VUmnsQ3BvMP89mHqFCF-146" style="edgeStyle=orthogonalEdgeStyle;rounded=0;orthogonalLoop=1;jettySize=auto;html=1;exitX=0;exitY=0.25;exitDx=0;exitDy=0;entryX=0.5;entryY=1;entryDx=0;entryDy=0;" edge="1" parent="1" source="1VUmnsQ3BvMP89mHqFCF-150" target="1VUmnsQ3BvMP89mHqFCF-31">
          <mxGeometry relative="1" as="geometry">
            <Array as="points">
              <mxPoint x="4058" y="1248" />
            </Array>
          </mxGeometry>
        </mxCell>
        <mxCell id="1VUmnsQ3BvMP89mHqFCF-147" style="edgeStyle=orthogonalEdgeStyle;rounded=0;orthogonalLoop=1;jettySize=auto;html=1;exitX=0;exitY=1;exitDx=0;exitDy=0;entryX=1;entryY=0.5;entryDx=0;entryDy=0;" edge="1" parent="1" source="1VUmnsQ3BvMP89mHqFCF-150" target="1VUmnsQ3BvMP89mHqFCF-54">
          <mxGeometry relative="1" as="geometry" />
        </mxCell>
        <mxCell id="1VUmnsQ3BvMP89mHqFCF-148" style="edgeStyle=orthogonalEdgeStyle;rounded=0;orthogonalLoop=1;jettySize=auto;html=1;exitX=0;exitY=0;exitDx=0;exitDy=0;entryX=1;entryY=0.5;entryDx=0;entryDy=0;" edge="1" parent="1" source="1VUmnsQ3BvMP89mHqFCF-150" target="1VUmnsQ3BvMP89mHqFCF-43">
          <mxGeometry relative="1" as="geometry" />
        </mxCell>
        <mxCell id="1VUmnsQ3BvMP89mHqFCF-149" style="edgeStyle=orthogonalEdgeStyle;rounded=0;orthogonalLoop=1;jettySize=auto;html=1;exitX=0.5;exitY=1;exitDx=0;exitDy=0;entryX=1;entryY=0;entryDx=0;entryDy=0;" edge="1" parent="1" source="1VUmnsQ3BvMP89mHqFCF-150" target="1VUmnsQ3BvMP89mHqFCF-60">
          <mxGeometry relative="1" as="geometry" />
        </mxCell>
        <mxCell id="1VUmnsQ3BvMP89mHqFCF-150" value="&lt;span style=&quot;font-size:14.0pt;line-height:105%;&lt;br/&gt;font-family:&amp;quot;Times New Roman&amp;quot;,serif;mso-fareast-font-family:Calibri;mso-fareast-theme-font:&lt;br/&gt;minor-latin;mso-ansi-language:EN-US;mso-fareast-language:EN-US;mso-bidi-language:&lt;br/&gt;AR-SA&quot;&gt;B01. CANHO&lt;/span&gt;" style="shape=partialRectangle;whiteSpace=wrap;html=1;left=0;right=0;fillColor=none;fontSize=15;rounded=0;" vertex="1" parent="1">
          <mxGeometry x="4213" y="1230" width="190" height="74" as="geometry" />
        </mxCell>
        <mxCell id="1VUmnsQ3BvMP89mHqFCF-151" style="edgeStyle=orthogonalEdgeStyle;rounded=0;orthogonalLoop=1;jettySize=auto;html=1;exitX=0;exitY=0.75;exitDx=0;exitDy=0;entryX=0.5;entryY=0;entryDx=0;entryDy=0;" edge="1" parent="1" source="1VUmnsQ3BvMP89mHqFCF-154" target="1VUmnsQ3BvMP89mHqFCF-36">
          <mxGeometry relative="1" as="geometry" />
        </mxCell>
        <mxCell id="1VUmnsQ3BvMP89mHqFCF-152" style="edgeStyle=orthogonalEdgeStyle;rounded=0;orthogonalLoop=1;jettySize=auto;html=1;exitX=0.5;exitY=1;exitDx=0;exitDy=0;entryX=0.5;entryY=0;entryDx=0;entryDy=0;" edge="1" parent="1" source="1VUmnsQ3BvMP89mHqFCF-154" target="1VUmnsQ3BvMP89mHqFCF-53">
          <mxGeometry relative="1" as="geometry" />
        </mxCell>
        <mxCell id="1VUmnsQ3BvMP89mHqFCF-153" style="edgeStyle=orthogonalEdgeStyle;rounded=0;orthogonalLoop=1;jettySize=auto;html=1;exitX=0.25;exitY=1;exitDx=0;exitDy=0;entryX=0;entryY=0;entryDx=0;entryDy=0;" edge="1" parent="1" source="1VUmnsQ3BvMP89mHqFCF-154" target="1VUmnsQ3BvMP89mHqFCF-60">
          <mxGeometry relative="1" as="geometry">
            <Array as="points">
              <mxPoint x="4264" y="1140" />
              <mxPoint x="1393" y="1140" />
            </Array>
          </mxGeometry>
        </mxCell>
        <mxCell id="1VUmnsQ3BvMP89mHqFCF-154" value="&lt;span style=&quot;font-size:14.0pt;line-height:105%;&lt;br/&gt;font-family:&amp;quot;Times New Roman&amp;quot;,serif;mso-fareast-font-family:Calibri;mso-fareast-theme-font:&lt;br/&gt;minor-latin;mso-ansi-language:EN-US;mso-fareast-language:EN-US;mso-bidi-language:&lt;br/&gt;AR-SA&quot;&gt;B02. KHACHHANG&lt;/span&gt;" style="shape=partialRectangle;whiteSpace=wrap;html=1;left=0;right=0;fillColor=none;fontSize=15;rounded=0;" vertex="1" parent="1">
          <mxGeometry x="4216" y="749" width="190" height="81" as="geometry" />
        </mxCell>
        <mxCell id="1VUmnsQ3BvMP89mHqFCF-155" value="&lt;span style=&quot;font-size:14.0pt;line-height:105%;&lt;br/&gt;font-family:&amp;quot;Times New Roman&amp;quot;,serif;mso-fareast-font-family:Calibri;mso-fareast-theme-font:&lt;br/&gt;minor-latin;mso-ansi-language:EN-US;mso-fareast-language:EN-US;mso-bidi-language:&lt;br/&gt;AR-SA&quot;&gt;B03. P_TIEPNHAN&lt;/span&gt;" style="shape=partialRectangle;whiteSpace=wrap;html=1;left=0;right=0;fillColor=none;fontSize=15;rounded=0;" vertex="1" parent="1">
          <mxGeometry x="4213" y="1522" width="190" height="76" as="geometry" />
        </mxCell>
        <mxCell id="1VUmnsQ3BvMP89mHqFCF-156" value="&lt;p style=&quot;line-height:115%&quot; class=&quot;MsoNormal&quot;&gt;&lt;span style=&quot;mso-bidi-font-size:&amp;lt;br/&amp;gt;14.0pt;line-height:115%;mso-bidi-font-family:&amp;quot;Times New Roman&amp;quot;&quot;&gt;&lt;font style=&quot;font-size: 18px;&quot;&gt;B06. BIENBAN&lt;/font&gt;&lt;/span&gt;&lt;/p&gt;" style="shape=partialRectangle;whiteSpace=wrap;html=1;left=0;right=0;fillColor=none;fontSize=15;rounded=0;" vertex="1" parent="1">
          <mxGeometry x="4156" y="2464" width="190" height="68" as="geometry" />
        </mxCell>
        <mxCell id="1VUmnsQ3BvMP89mHqFCF-157" value="&lt;span style=&quot;font-size:14.0pt;line-height:105%;&lt;br/&gt;font-family:&amp;quot;Times New Roman&amp;quot;,serif;mso-fareast-font-family:Calibri;mso-fareast-theme-font:&lt;br/&gt;minor-latin;mso-ansi-language:EN-US;mso-fareast-language:EN-US;mso-bidi-language:&lt;br/&gt;AR-SA&quot;&gt;B05.1. CT_HDTT&lt;/span&gt;" style="shape=partialRectangle;whiteSpace=wrap;html=1;left=0;right=0;fillColor=none;fontSize=15;rounded=0;" vertex="1" parent="1">
          <mxGeometry x="4154" y="3091" width="190" height="68" as="geometry" />
        </mxCell>
        <mxCell id="1VUmnsQ3BvMP89mHqFCF-158" value="&lt;p style=&quot;line-height:115%&quot; class=&quot;MsoNormal&quot;&gt;&lt;span style=&quot;mso-bidi-font-size:&lt;br/&gt;14.0pt;line-height:115%;mso-bidi-font-family:&amp;quot;Times New Roman&amp;quot;&quot;&gt;&lt;font style=&quot;font-size: 18px;&quot;&gt;B05. HOADONTT&lt;/font&gt;&lt;/span&gt;&lt;/p&gt;" style="shape=partialRectangle;whiteSpace=wrap;html=1;left=0;right=0;fillColor=none;fontSize=15;rounded=0;" vertex="1" parent="1">
          <mxGeometry x="4154" y="3021" width="190" height="69" as="geometry" />
        </mxCell>
        <mxCell id="1VUmnsQ3BvMP89mHqFCF-159" style="edgeStyle=orthogonalEdgeStyle;rounded=0;orthogonalLoop=1;jettySize=auto;html=1;exitX=0.5;exitY=1;exitDx=0;exitDy=0;entryX=0.5;entryY=1;entryDx=0;entryDy=0;" edge="1" parent="1" source="1VUmnsQ3BvMP89mHqFCF-160" target="1VUmnsQ3BvMP89mHqFCF-60">
          <mxGeometry relative="1" as="geometry">
            <Array as="points">
              <mxPoint x="4200" y="1940" />
              <mxPoint x="1440" y="1940" />
            </Array>
          </mxGeometry>
        </mxCell>
        <mxCell id="1VUmnsQ3BvMP89mHqFCF-160" value="&lt;span style=&quot;font-size:14.0pt;line-height:105%;&lt;br/&gt;font-family:&amp;quot;Times New Roman&amp;quot;,serif;mso-fareast-font-family:Calibri;mso-fareast-theme-font:&lt;br/&gt;minor-latin;mso-ansi-language:EN-US;mso-fareast-language:EN-US;mso-bidi-language:&lt;br/&gt;AR-SA&quot;&gt;B04. HOPDONG&lt;/span&gt;" style="shape=partialRectangle;whiteSpace=wrap;html=1;left=0;right=0;fillColor=none;fontSize=15;rounded=0;" vertex="1" parent="1">
          <mxGeometry x="4080" y="1754" width="241" height="113" as="geometry" />
        </mxCell>
        <mxCell id="1VUmnsQ3BvMP89mHqFCF-161" value="&lt;p style=&quot;line-height:115%&quot; class=&quot;MsoNormal&quot;&gt;&lt;span style=&quot;font-size:14.0pt;line-height:105%;&lt;br/&gt;font-family:&amp;quot;Times New Roman&amp;quot;,serif;mso-fareast-font-family:Calibri;mso-fareast-theme-font:&lt;br/&gt;minor-latin;mso-ansi-language:EN-US;mso-fareast-language:EN-US;mso-bidi-language:&lt;br/&gt;AR-SA&quot;&gt;B06.1. CT_BIENBAN&lt;/span&gt;&lt;/p&gt;" style="shape=partialRectangle;whiteSpace=wrap;html=1;left=0;right=0;fillColor=none;fontSize=15;rounded=0;" vertex="1" parent="1">
          <mxGeometry x="4156" y="2531" width="190" height="72" as="geometry" />
        </mxCell>
        <mxCell id="1VUmnsQ3BvMP89mHqFCF-162" value="&lt;p style=&quot;line-height:115%&quot; class=&quot;MsoNormal&quot;&gt;&lt;span style=&quot;font-size:14.0pt;line-height:105%;&lt;br/&gt;font-family:&amp;quot;Times New Roman&amp;quot;,serif;mso-fareast-font-family:Calibri;mso-fareast-theme-font:&lt;br/&gt;minor-latin;mso-ansi-language:EN-US;mso-fareast-language:EN-US;mso-bidi-language:&lt;br/&gt;AR-SA&quot;&gt;B07.1. CT_HDDV&lt;/span&gt;&lt;/p&gt;" style="shape=partialRectangle;whiteSpace=wrap;html=1;left=0;right=0;fillColor=none;fontSize=15;rounded=0;" vertex="1" parent="1">
          <mxGeometry x="4153" y="3364" width="190" height="65" as="geometry" />
        </mxCell>
        <mxCell id="1VUmnsQ3BvMP89mHqFCF-163" value="&lt;p style=&quot;line-height:115%&quot; class=&quot;MsoNormal&quot;&gt;&lt;span style=&quot;mso-bidi-font-size:&amp;lt;br/&amp;gt;14.0pt;line-height:115%;mso-bidi-font-family:&amp;quot;Times New Roman&amp;quot;&quot;&gt;&lt;font style=&quot;font-size: 18px;&quot;&gt;B07. HOADONDV&lt;/font&gt;&lt;/span&gt;&lt;/p&gt;" style="shape=partialRectangle;whiteSpace=wrap;html=1;left=0;right=0;fillColor=none;fontSize=15;rounded=0;" vertex="1" parent="1">
          <mxGeometry x="4154" y="3296" width="190" height="69" as="geometry" />
        </mxCell>
        <mxCell id="1VUmnsQ3BvMP89mHqFCF-164" style="edgeStyle=orthogonalEdgeStyle;rounded=0;orthogonalLoop=1;jettySize=auto;html=1;exitX=1;exitY=0.5;exitDx=0;exitDy=0;entryX=0.008;entryY=0.701;entryDx=0;entryDy=0;entryPerimeter=0;" edge="1" parent="1" source="1VUmnsQ3BvMP89mHqFCF-63" target="1VUmnsQ3BvMP89mHqFCF-36">
          <mxGeometry relative="1" as="geometry">
            <Array as="points">
              <mxPoint x="890" y="2187" />
              <mxPoint x="890" y="988" />
            </Array>
          </mxGeometry>
        </mxCell>
        <mxCell id="1VUmnsQ3BvMP89mHqFCF-165" style="edgeStyle=orthogonalEdgeStyle;rounded=0;orthogonalLoop=1;jettySize=auto;html=1;exitX=1;exitY=0.5;exitDx=0;exitDy=0;entryX=0.312;entryY=0.976;entryDx=0;entryDy=0;entryPerimeter=0;" edge="1" parent="1" source="1VUmnsQ3BvMP89mHqFCF-85" target="1VUmnsQ3BvMP89mHqFCF-25">
          <mxGeometry relative="1" as="geometry">
            <Array as="points">
              <mxPoint x="578" y="2543" />
              <mxPoint x="578" y="743" />
              <mxPoint x="2738" y="743" />
            </Array>
          </mxGeometry>
        </mxCell>
        <mxCell id="1VUmnsQ3BvMP89mHqFCF-166" style="edgeStyle=orthogonalEdgeStyle;rounded=0;orthogonalLoop=1;jettySize=auto;html=1;exitX=1;exitY=0.5;exitDx=0;exitDy=0;entryX=0.34;entryY=0.972;entryDx=0;entryDy=0;entryPerimeter=0;" edge="1" parent="1" source="1VUmnsQ3BvMP89mHqFCF-92" target="1VUmnsQ3BvMP89mHqFCF-36">
          <mxGeometry relative="1" as="geometry" />
        </mxCell>
        <mxCell id="1VUmnsQ3BvMP89mHqFCF-167" style="edgeStyle=orthogonalEdgeStyle;rounded=0;orthogonalLoop=1;jettySize=auto;html=1;exitX=1;exitY=0.5;exitDx=0;exitDy=0;entryX=0.023;entryY=0.776;entryDx=0;entryDy=0;entryPerimeter=0;" edge="1" parent="1" source="1VUmnsQ3BvMP89mHqFCF-101" target="1VUmnsQ3BvMP89mHqFCF-36">
          <mxGeometry relative="1" as="geometry" />
        </mxCell>
        <mxCell id="1VUmnsQ3BvMP89mHqFCF-168" style="edgeStyle=orthogonalEdgeStyle;rounded=0;orthogonalLoop=1;jettySize=auto;html=1;exitX=1;exitY=0.5;exitDx=0;exitDy=0;entryX=0.3;entryY=0.997;entryDx=0;entryDy=0;entryPerimeter=0;" edge="1" parent="1" source="1VUmnsQ3BvMP89mHqFCF-120" target="1VUmnsQ3BvMP89mHqFCF-8">
          <mxGeometry relative="1" as="geometry">
            <Array as="points">
              <mxPoint x="1710" y="3365" />
              <mxPoint x="1710" y="1203" />
              <mxPoint x="1833" y="1203" />
            </Array>
          </mxGeometry>
        </mxCell>
      </root>
    </mxGraphModel>
  </diagram>
</mxfile>
